<svg version="1.2" xmlns="http://www.w3.org/2000/svg" viewBox="0 0 538 576" width="538" height="576">
	<title>23802-ai</title>
	<style>
		.s0 { fill: #e6e6e6 } 
		.s1 { fill: #e6e5db } 
		.s2 { fill: #7b6973 } 
	</style>
	<g id="Layer 1">
		<g id="&lt;Group&gt;">
			<path id="&lt;Path&gt;" class="s0" d="m833.2 576h-1123.2v-576h1123.2z"/>
			<g id="&lt;Clip Group&gt;">
				<g id="&lt;Group&gt;">
					<path id="&lt;Path&gt;" class="s1" d="m-15 1h573v573h-573z"/>
					<g id="&lt;Group&gt;">
						<g id="&lt;Group&gt;">
							<g id="&lt;Group&gt;">
								<g id="&lt;Group&gt;">
									<path id="&lt;Path&gt;" class="s2" d="m101.3 129.1c-3-1.5-2.5-1.2-6.4-3.2-3.8-2-10.2 0-10.7-3.8-0.4-3.9 4.6-4.4 6.9-5.8 2-1.2 3.8-4 6.8-3.2 1.6 0.4 3.1 2.2 3.7 4.2 0.6 1.9 1 2.7 3.6 6.3 3 4.1-1 7.1-3.9 5.5z"/>
								</g>
								<path id="&lt;Path&gt;" class="s2" d="m89 106.1c1.2 1.8 2.6 4.3 1.3 7-1 2.2-3.7 2.8-5.3 0.7-0.9-1.1-2.1-4.9-0.8-7.7 1.3-2.9 3.7-1.6 4.8 0z"/>
								<path id="&lt;Path&gt;" class="s2" d="m99 102.9c0.5 2.1 0.9 4.9-1.3 7-1.7 1.6-4.5 1.2-5.2-1.3-0.5-1.3-0.1-5.3 2.1-7.5 2.3-2.1 4-0.1 4.4 1.8z"/>
								<path id="&lt;Path&gt;" class="s2" d="m113.6 116.5c-0.7 3-4 5.4-5.4 5.7-2.5 0.6-4.3-1.6-3.7-3.9 0.7-2.9 3.3-4.1 5.4-4.7 1.9-0.6 4.5-0.1 3.7 2.9z"/>
								<path id="&lt;Path&gt;" class="s2" d="m108.6 105.8c0.5 3.1-1.6 6.5-2.8 7.3-2.1 1.5-4.6 0.2-5-2.1-0.5-2.9 1.5-5.1 3.2-6.4 1.5-1.3 4.1-1.9 4.6 1.2z"/>
							</g>
							<g id="&lt;Group&gt;">
								<g id="&lt;Group&gt;">
									<path id="&lt;Path&gt;" class="s2" d="m133.7 128.1c-2.1-2.6-1.7-2.1-4.5-5.5-2.7-3.4-9.4-4.1-8.2-7.8 1.1-3.7 5.8-2.2 8.5-2.6 2.4-0.3 5.2-2.1 7.6-0.2 1.3 1 1.9 3.3 1.7 5.3-0.2 2.1-0.2 3 0.8 7.3 1.1 4.9-3.8 6.1-5.9 3.5z"/>
								</g>
								<path id="&lt;Path&gt;" class="s2" d="m131.7 102c0.4 2.2 0.7 5-1.6 7-1.8 1.6-4.5 1-5.2-1.5-0.3-1.3 0.2-5.3 2.5-7.4 2.3-2.1 4 0 4.3 1.9z"/>
								<path id="&lt;Path&gt;" class="s2" d="m142.2 103.1c-0.4 2.1-1.2 4.9-4 5.9-2.2 0.8-4.6-0.7-4.3-3.3 0.1-1.3 2.1-4.9 5-6 2.9-1 3.7 1.5 3.3 3.4z"/>
								<path id="&lt;Path&gt;" class="s2" d="m150.1 121.5c-1.9 2.5-5.8 3.3-7.2 3-2.5-0.5-3.3-3.2-1.9-5.1 1.8-2.4 4.7-2.3 6.9-2.1 1.9 0.2 4.1 1.7 2.2 4.2z"/>
								<path id="&lt;Path&gt;" class="s2" d="m149.8 109.6c-0.8 3-4.1 5.3-5.5 5.6-2.5 0.6-4.2-1.6-3.7-3.9 0.7-2.9 3.4-4 5.5-4.6 1.9-0.6 4.5-0.1 3.7 2.9z"/>
							</g>
						</g>
						<g id="&lt;Group&gt;">
							<g id="&lt;Group&gt;">
								<g id="&lt;Group&gt;">
									<path id="&lt;Path&gt;" class="s2" d="m358.4 167.7c-3.2-1.1-2.7-0.9-6.8-2.4-4.1-1.4-10.1 1.5-11.1-2.3-0.9-3.8 3.9-4.9 6-6.6 1.8-1.5 3.3-4.5 6.3-4.2 1.6 0.2 3.4 1.9 4.3 3.7 0.8 1.8 1.3 2.6 4.4 5.8 3.5 3.6 0 7.1-3.1 6z"/>
								</g>
								<path id="&lt;Path&gt;" class="s2" d="m343 146.5c1.5 1.6 3.2 4 2.3 6.8-0.7 2.3-3.3 3.2-5.2 1.4-1-0.9-2.7-4.6-1.8-7.6 1-2.9 3.4-2 4.7-0.6z"/>
								<path id="&lt;Path&gt;" class="s2" d="m352.6 142c0.7 2 1.5 4.8-0.4 7.1-1.5 1.9-4.3 1.8-5.4-0.5-0.6-1.3-0.8-5.3 1.2-7.8 1.9-2.4 3.9-0.7 4.6 1.2z"/>
								<path id="&lt;Path&gt;" class="s2" d="m368.9 153.5c-0.3 3.1-3.3 5.9-4.6 6.4-2.4 0.9-4.5-1-4.2-3.4 0.2-2.9 2.7-4.4 4.7-5.4 1.8-0.8 4.4-0.7 4.1 2.4z"/>
								<path id="&lt;Path&gt;" class="s2" d="m362.4 143.6c0.9 2.9-0.7 6.6-1.7 7.6-1.9 1.8-4.5 0.8-5.2-1.4-0.9-2.9 0.8-5.2 2.2-6.8 1.3-1.5 3.8-2.4 4.7 0.6z"/>
							</g>
							<g id="&lt;Group&gt;">
								<g id="&lt;Group&gt;">
									<path id="&lt;Path&gt;" class="s2" d="m390.4 162.3c-2.5-2.3-2.1-1.9-5.2-4.9-3.2-3-9.9-2.8-9.3-6.6 0.7-3.8 5.5-2.9 8.2-3.7 2.2-0.6 4.8-2.8 7.4-1.2 1.4 0.8 2.4 3 2.4 5.1 0.1 2 0.2 2.9 1.8 7.1 1.7 4.6-2.9 6.5-5.3 4.2z"/>
								</g>
								<path id="&lt;Path&gt;" class="s2" d="m384.9 136.7c0.7 2.1 1.3 4.9-0.7 7.1-1.5 1.9-4.3 1.7-5.3-0.7-0.6-1.3-0.6-5.3 1.4-7.7 2-2.4 3.9-0.5 4.6 1.3z"/>
								<path id="&lt;Path&gt;" class="s2" d="m395.4 136.4c-0.1 2.1-0.6 5-3.2 6.4-2.1 1.1-4.6-0.1-4.7-2.7 0-1.4 1.4-5.2 4.1-6.6 2.8-1.5 3.9 0.9 3.8 2.9z"/>
								<path id="&lt;Path&gt;" class="s2" d="m405.7 153.5c-1.5 2.7-5.3 4.1-6.7 4-2.6-0.1-3.7-2.7-2.6-4.8 1.5-2.6 4.3-3 6.5-3 2 0 4.3 1.1 2.8 3.8z"/>
								<path id="&lt;Path&gt;" class="s2" d="m403.8 141.8c-0.4 3.1-3.4 5.8-4.7 6.3-2.4 0.9-4.4-1-4.2-3.4 0.3-3 2.8-4.4 4.8-5.3 1.8-0.8 4.4-0.7 4.1 2.4z"/>
							</g>
						</g>
						<g id="&lt;Group&gt;">
							<g id="&lt;Group&gt;">
								<g id="&lt;Group&gt;">
									<path id="&lt;Path&gt;" class="s2" d="m267.2 540c-3.3 0.7-2.7 0.6-7 1.5-4.3 0.8-8 6.5-10.7 3.8-2.8-2.8 0.7-6.3 1.6-8.8 0.8-2.3 0.5-5.5 3.3-6.8 1.5-0.7 3.8-0.2 5.5 0.9 1.7 1.1 2.5 1.5 6.9 2.6 4.8 1.3 3.6 6.1 0.4 6.8z"/>
								</g>
								<path id="&lt;Path&gt;" class="s2" d="m243.1 529.9c2 0.6 4.7 1.7 5.4 4.6 0.6 2.3-1.1 4.5-3.7 3.9-1.3-0.3-4.7-2.6-5.4-5.6-0.8-3 1.8-3.5 3.7-2.9z"/>
								<path id="&lt;Path&gt;" class="s2" d="m248.8 521c1.7 1.3 3.8 3.4 3.4 6.3-0.3 2.4-2.7 3.8-4.8 2.3-1.2-0.7-3.5-4.1-3.1-7.2 0.4-3 3-2.6 4.5-1.4z"/>
								<path id="&lt;Path&gt;" class="s2" d="m268.8 522.4c1.3 2.8 0.2 6.7-0.6 7.8-1.6 2-4.4 1.5-5.4-0.7-1.3-2.6 0-5.2 1.2-7 1.1-1.6 3.4-2.9 4.8-0.1z"/>
								<path id="&lt;Path&gt;" class="s2" d="m258.1 517.3c2.3 2 2.8 6 2.5 7.4-0.7 2.5-3.4 3.1-5.2 1.5-2.3-2-2.1-4.9-1.6-7 0.3-1.9 2-4 4.3-1.9z"/>
							</g>
							<g id="&lt;Group&gt;">
								<g id="&lt;Group&gt;">
									<path id="&lt;Path&gt;" class="s2" d="m291.7 518.7c-3.3-0.7-2.7-0.5-7-1.5-4.3-0.9-9.9 2.8-11.3-0.8-1.5-3.6 3.2-5.4 5-7.3 1.6-1.8 2.7-4.9 5.7-5 1.7 0 3.6 1.4 4.7 3.1 1.1 1.7 1.7 2.4 5.2 5.1 4 3.1 0.9 7.1-2.3 6.4z"/>
								</g>
								<path id="&lt;Path&gt;" class="s2" d="m273.7 499.7c1.6 1.4 3.6 3.5 3.1 6.4-0.4 2.4-2.9 3.7-4.9 2.2-1.2-0.8-3.3-4.2-2.8-7.3 0.5-3.1 3.1-2.5 4.6-1.3z"/>
								<path id="&lt;Path&gt;" class="s2" d="m282.5 494c1 1.9 2.1 4.5 0.6 7.1-1.2 2-4 2.3-5.4 0.2-0.8-1.2-1.5-5.2 0.1-7.8 1.6-2.7 3.8-1.2 4.7 0.5z"/>
								<path id="&lt;Path&gt;" class="s2" d="m300.2 503.3c0.1 3.1-2.5 6.2-3.7 6.8-2.3 1.3-4.6-0.3-4.6-2.7-0.2-3 2.1-4.8 3.9-6 1.7-1 4.3-1.3 4.4 1.9z"/>
								<path id="&lt;Path&gt;" class="s2" d="m292.5 494.2c1.3 2.9 0.2 6.7-0.7 7.8-1.6 2-4.4 1.5-5.4-0.7-1.2-2.7 0.1-5.2 1.3-7 1.2-1.6 3.5-2.9 4.8-0.1z"/>
							</g>
						</g>
						<g id="&lt;Group&gt;">
							<g id="&lt;Group&gt;">
								<g id="&lt;Group&gt;">
									<path id="&lt;Path&gt;" class="s2" d="m218.2 301.4c-3 1.3-2.5 1.1-6.5 2.9-4 1.7-6.4 8-9.7 5.9-3.2-2.1-0.5-6.2-0.2-8.9 0.3-2.4-0.7-5.5 1.8-7.4 1.3-0.9 3.7-1 5.6-0.2 1.9 0.7 2.8 0.9 7.2 1.2 5 0.2 4.9 5.2 1.8 6.5z"/>
								</g>
								<path id="&lt;Path&gt;" class="s2" d="m192.6 296.4c2.1 0.2 5 0.8 6.3 3.4 1 2.2-0.3 4.7-2.8 4.7-1.4-0.1-5.2-1.6-6.5-4.4-1.4-2.8 1-3.8 3-3.7z"/>
								<path id="&lt;Path&gt;" class="s2" d="m196.4 286.6c1.9 1 4.4 2.5 4.6 5.4 0.2 2.4-1.9 4.3-4.3 3.3-1.3-0.5-4.2-3.3-4.5-6.4-0.2-3.1 2.4-3.1 4.2-2.3z"/>
								<path id="&lt;Path&gt;" class="s2" d="m216.2 283.9c1.9 2.4 1.6 6.5 1 7.7-1.1 2.3-3.9 2.4-5.4 0.5-1.8-2.4-1-5.2-0.2-7.2 0.7-1.8 2.7-3.5 4.6-1z"/>
								<path id="&lt;Path&gt;" class="s2" d="m204.7 281c2.7 1.6 4 5.4 3.9 6.8-0.1 2.6-2.7 3.7-4.8 2.5-2.6-1.4-2.9-4.3-3-6.5 0-1.9 1.2-4.3 3.9-2.8z"/>
							</g>
							<g id="&lt;Group&gt;">
								<g id="&lt;Group&gt;">
									<path id="&lt;Path&gt;" class="s2" d="m237.8 275.5c-3.3 0-2.7 0.1-7.1 0-4.4 0-9.1 4.8-11.2 1.6-2.2-3.3 2-6 3.4-8.3 1.2-2 1.6-5.3 4.5-6 1.6-0.4 3.9 0.6 5.3 2 1.4 1.5 2.1 2 6.1 4 4.5 2.2 2.4 6.8-1 6.7z"/>
								</g>
								<path id="&lt;Path&gt;" class="s2" d="m216.3 260.7c1.9 1 4.3 2.6 4.4 5.6 0.1 2.4-2 4.2-4.4 3.1-1.3-0.5-4.1-3.5-4.2-6.6-0.1-3.1 2.5-3 4.2-2.1z"/>
								<path id="&lt;Path&gt;" class="s2" d="m223.8 253.2c1.4 1.7 3 4.1 2 6.8-0.8 2.3-3.4 3.2-5.2 1.3-1-1-2.6-4.7-1.6-7.6 1-3 3.5-2 4.8-0.5z"/>
								<path id="&lt;Path&gt;" class="s2" d="m243 258.7c0.7 3-1.1 6.6-2.2 7.5-2 1.6-4.5 0.5-5.1-1.8-0.7-2.9 1.1-5.1 2.6-6.6 1.4-1.4 4-2.2 4.7 0.9z"/>
								<path id="&lt;Path&gt;" class="s2" d="m233.6 251.4c1.9 2.5 1.5 6.5 0.9 7.8-1.1 2.3-4 2.3-5.4 0.4-1.8-2.4-1-5.2-0.1-7.2 0.7-1.8 2.7-3.5 4.6-1z"/>
							</g>
						</g>
						<g id="&lt;Group&gt;">
							<g id="&lt;Group&gt;">
								<g id="&lt;Group&gt;">
									<path id="&lt;Path&gt;" class="s2" d="m484.8 540.8c-3.2-1.1-2.7-0.9-6.8-2.4-4.1-1.4-10.1 1.5-11.1-2.2-0.9-3.8 3.9-5 6-6.7 1.8-1.5 3.2-4.5 6.2-4.2 1.7 0.2 3.5 1.9 4.3 3.7 0.9 1.8 1.4 2.6 4.5 5.8 3.5 3.5 0 7.1-3.1 6z"/>
								</g>
								<path id="&lt;Path&gt;" class="s2" d="m469.4 519.7c1.4 1.6 3.1 3.9 2.3 6.7-0.7 2.3-3.4 3.3-5.2 1.5-1.1-0.9-2.7-4.6-1.8-7.6 0.9-3 3.3-2.1 4.7-0.6z"/>
								<path id="&lt;Path&gt;" class="s2" d="m478.9 515.1c0.7 2 1.5 4.8-0.3 7.1-1.5 1.9-4.3 1.8-5.4-0.5-0.6-1.3-0.9-5.3 1-7.8 2-2.4 3.9-0.7 4.7 1.2z"/>
								<path id="&lt;Path&gt;" class="s2" d="m495.2 526.6c-0.3 3.1-3.2 5.8-4.5 6.3-2.4 0.9-4.5-0.9-4.3-3.3 0.3-3 2.7-4.5 4.7-5.4 1.8-0.8 4.4-0.7 4.1 2.4z"/>
								<path id="&lt;Path&gt;" class="s2" d="m488.7 516.6c1 3-0.7 6.7-1.7 7.7-1.8 1.8-4.5 0.8-5.2-1.5-0.9-2.8 0.8-5.1 2.2-6.7 1.3-1.5 3.8-2.4 4.7 0.5z"/>
							</g>
							<g id="&lt;Group&gt;">
								<g id="&lt;Group&gt;">
									<path id="&lt;Path&gt;" class="s2" d="m516.7 535.2c-2.4-2.3-2-1.9-5.2-4.9-3.1-2.9-9.9-2.7-9.3-6.5 0.7-3.8 5.6-3 8.2-3.7 2.3-0.7 4.8-2.8 7.4-1.3 1.4 0.8 2.4 3 2.5 5.1 0 2 0.2 2.9 1.7 7 1.8 4.7-2.8 6.6-5.3 4.3z"/>
								</g>
								<path id="&lt;Path&gt;" class="s2" d="m511.1 509.7c0.7 2 1.4 4.8-0.6 7.1-1.5 1.8-4.3 1.6-5.3-0.7-0.6-1.3-0.7-5.4 1.4-7.7 2-2.4 3.9-0.6 4.5 1.3z"/>
								<path id="&lt;Path&gt;" class="s2" d="m521.7 509.3c-0.1 2.1-0.6 5-3.2 6.4-2.1 1.1-4.6-0.1-4.7-2.7-0.1-1.4 1.4-5.1 4.1-6.6 2.7-1.5 3.8 0.9 3.8 2.9z"/>
								<path id="&lt;Path&gt;" class="s2" d="m532 526.4c-1.5 2.7-5.3 4-6.7 4-2.6-0.2-3.7-2.7-2.5-4.8 1.4-2.6 4.3-3 6.4-3.1 2 0 4.4 1.2 2.8 3.9z"/>
								<path id="&lt;Path&gt;" class="s2" d="m530.1 514.7c-0.4 3.1-3.3 5.8-4.6 6.3-2.5 0.9-4.5-1-4.3-3.4 0.3-3 2.8-4.5 4.8-5.4 1.8-0.8 4.4-0.6 4.1 2.5z"/>
							</g>
						</g>
						<g id="&lt;Group&gt;">
							<g id="&lt;Group&gt;">
								<g id="&lt;Group&gt;">
									<path id="&lt;Path&gt;" class="s2" d="m34 209c-3.3 0-2.7 0.1-7.1 0-4.4 0-9.1 4.8-11.3 1.6-2.1-3.3 2.1-6 3.5-8.3 1.2-2 1.6-5.3 4.5-6 1.6-0.3 3.9 0.6 5.3 2 1.4 1.5 2.1 2 6.1 4 4.5 2.2 2.4 6.8-1 6.7z"/>
								</g>
								<path id="&lt;Path&gt;" class="s2" d="m12.5 194.2c1.9 1 4.3 2.6 4.4 5.6 0.1 2.4-2 4.2-4.4 3.1-1.3-0.5-4.1-3.5-4.2-6.6-0.1-3.1 2.5-3 4.2-2.1z"/>
								<path id="&lt;Path&gt;" class="s2" d="m20 186.7c1.4 1.7 3 4.1 2 6.9-0.8 2.2-3.4 3.1-5.2 1.2-1-0.9-2.6-4.7-1.6-7.6 1.1-3 3.5-2 4.8-0.5z"/>
								<path id="&lt;Path&gt;" class="s2" d="m39.2 192.2c0.7 3-1.1 6.6-2.2 7.5-2 1.6-4.5 0.5-5.1-1.8-0.7-2.9 1.1-5.1 2.7-6.6 1.3-1.4 3.9-2.1 4.6 0.9z"/>
								<path id="&lt;Path&gt;" class="s2" d="m29.8 184.9c1.9 2.5 1.5 6.6 0.9 7.8-1.1 2.3-3.9 2.3-5.4 0.4-1.8-2.4-1-5.2-0.1-7.2 0.7-1.8 2.7-3.5 4.6-1z"/>
							</g>
							<g id="&lt;Group&gt;">
								<g id="&lt;Group&gt;">
									<path id="&lt;Path&gt;" class="s2" d="m62.4 193.2c-3.1-1.3-2.6-1.1-6.5-2.8-4-1.8-10.3 0.7-11-3.2-0.6-3.8 4.3-4.6 6.5-6.1 1.9-1.4 3.6-4.3 6.6-3.7 1.6 0.3 3.2 2.1 4 4 0.7 1.9 1.1 2.7 4 6.1 3.2 3.8-0.6 7.1-3.6 5.7z"/>
								</g>
								<path id="&lt;Path&gt;" class="s2" d="m48.6 171c1.4 1.7 2.9 4.1 1.8 6.9-0.8 2.2-3.5 3-5.3 1.1-0.9-1.1-2.3-4.8-1.2-7.7 1.1-2.9 3.5-1.9 4.7-0.3z"/>
								<path id="&lt;Path&gt;" class="s2" d="m58.5 167.1c0.6 2.1 1.1 5-0.9 7.1-1.6 1.8-4.4 1.5-5.3-0.9-0.5-1.3-0.4-5.3 1.7-7.6 2.1-2.3 3.9-0.4 4.5 1.4z"/>
								<path id="&lt;Path&gt;" class="s2" d="m73.9 179.9c-0.5 3-3.7 5.5-5 5.9-2.5 0.8-4.4-1.3-4-3.6 0.5-2.9 3.1-4.3 5.1-5 1.8-0.7 4.4-0.4 3.9 2.7z"/>
								<path id="&lt;Path&gt;" class="s2" d="m68.2 169.5c0.7 3-1.2 6.5-2.3 7.4-2 1.7-4.5 0.5-5.1-1.8-0.7-2.9 1.2-5.1 2.7-6.6 1.5-1.3 4-2.1 4.7 1z"/>
							</g>
						</g>
						<g id="&lt;Group&gt;">
							<g id="&lt;Group&gt;">
								<g id="&lt;Group&gt;">
									<path id="&lt;Path&gt;" class="s2" d="m277.1 108.6c-3.1-1.2-2.6-1-6.6-2.5-4.1-1.6-10.2 1.1-11.1-2.7-0.8-3.8 4-4.8 6.2-6.5 1.9-1.4 3.4-4.3 6.4-3.9 1.7 0.2 3.4 1.9 4.2 3.8 0.8 1.8 1.3 2.6 4.3 5.9 3.4 3.7-0.3 7.1-3.4 5.9z"/>
								</g>
								<path id="&lt;Path&gt;" class="s2" d="m262.4 87c1.4 1.6 3.1 4 2.1 6.8-0.8 2.3-3.4 3.2-5.2 1.3-1-1-2.6-4.7-1.6-7.6 1-3 3.5-2 4.7-0.5z"/>
								<path id="&lt;Path&gt;" class="s2" d="m272.1 82.7c0.7 2.1 1.3 4.9-0.6 7.1-1.5 1.9-4.3 1.7-5.3-0.7-0.6-1.2-0.7-5.3 1.3-7.7 2-2.3 3.9-0.5 4.6 1.3z"/>
								<path id="&lt;Path&gt;" class="s2" d="m288 94.8c-0.4 3-3.4 5.7-4.7 6.2-2.4 0.8-4.5-1.2-4.2-3.5 0.4-3 2.9-4.4 4.9-5.3 1.8-0.7 4.5-0.5 4 2.6z"/>
								<path id="&lt;Path&gt;" class="s2" d="m281.9 84.6c0.8 3-0.9 6.6-2 7.6-1.9 1.7-4.5 0.7-5.2-1.6-0.8-2.9 1-5.2 2.5-6.7 1.4-1.4 3.9-2.3 4.7 0.7z"/>
							</g>
							<g id="&lt;Group&gt;">
								<g id="&lt;Group&gt;">
									<path id="&lt;Path&gt;" class="s2" d="m309.3 104.1c-2.4-2.4-2-1.9-5.1-5-3.1-3.1-9.8-3.1-9-6.9 0.7-3.8 5.6-2.7 8.2-3.4 2.3-0.6 4.9-2.6 7.5-1 1.4 0.8 2.3 3.1 2.3 5.1-0.1 2 0.1 2.9 1.5 7.1 1.6 4.8-3.1 6.5-5.4 4.1z"/>
								</g>
								<path id="&lt;Path&gt;" class="s2" d="m304.5 78.4c0.6 2.1 1.2 4.9-0.8 7.1-1.7 1.8-4.4 1.5-5.4-0.9-0.5-1.3-0.4-5.3 1.7-7.6 2.1-2.3 3.9-0.5 4.5 1.4z"/>
								<path id="&lt;Path&gt;" class="s2" d="m315.1 78.4c-0.2 2.1-0.7 5-3.4 6.3-2.2 1-4.7-0.2-4.7-2.8 0.1-1.4 1.6-5.2 4.4-6.5 2.8-1.4 3.8 1 3.7 3z"/>
								<path id="&lt;Path&gt;" class="s2" d="m324.8 95.8c-1.6 2.7-5.4 3.9-6.8 3.8-2.6-0.2-3.6-2.8-2.4-4.9 1.5-2.5 4.4-2.8 6.6-2.8 1.9 0 4.3 1.2 2.6 3.9z"/>
								<path id="&lt;Path&gt;" class="s2" d="m323.3 84c-0.5 3.1-3.5 5.7-4.9 6.2-2.4 0.8-4.4-1.2-4.1-3.6 0.4-2.9 3-4.3 5-5.1 1.8-0.8 4.4-0.5 4 2.5z"/>
							</g>
						</g>
						<g id="&lt;Group&gt;">
							<g id="&lt;Group&gt;">
								<g id="&lt;Group&gt;">
									<path id="&lt;Path&gt;" class="s2" d="m382.4 55.8c-1.5-2.9-1.3-2.4-3.4-6.3-2.1-3.8-8.6-5.6-6.8-9.1 1.8-3.4 6.2-1.1 8.9-1 2.4 0.1 5.4-1.1 7.5 1.1 1.1 1.3 1.3 3.7 0.7 5.6-0.6 1.9-0.7 2.9-0.5 7.3 0.2 5-4.8 5.3-6.4 2.4z"/>
								</g>
								<path id="&lt;Path&gt;" class="s2" d="m385.1 29.8c0 2.1-0.3 5-2.8 6.6-2.1 1.2-4.7 0.2-4.9-2.4-0.1-1.4 1.1-5.3 3.7-6.9 2.7-1.6 3.9 0.7 4 2.7z"/>
								<path id="&lt;Path&gt;" class="s2" d="m395.2 32.7c-0.8 2-2.1 4.6-5 5.1-2.4 0.4-4.4-1.5-3.7-4 0.4-1.3 3-4.5 6-5 3.1-0.6 3.4 2.1 2.7 3.9z"/>
								<path id="&lt;Path&gt;" class="s2" d="m399.7 52.2c-2.3 2.1-6.3 2.2-7.6 1.7-2.4-0.9-2.7-3.7-0.9-5.4 2.1-2 5-1.5 7-0.8 1.9 0.5 3.8 2.4 1.5 4.5z"/>
								<path id="&lt;Path&gt;" class="s2" d="m401.5 40.4c-1.3 2.9-5 4.5-6.3 4.6-2.6 0.1-4-2.4-3-4.6 1.2-2.7 4-3.3 6.2-3.5 1.9-0.2 4.4 0.7 3.1 3.5z"/>
							</g>
							<g id="&lt;Group&gt;">
								<g id="&lt;Group&gt;">
									<path id="&lt;Path&gt;" class="s2" d="m410 73c-0.3-3.4-0.3-2.8-0.7-7.1-0.3-4.4-5.5-8.7-2.5-11.1 3-2.4 6.1 1.5 8.5 2.7 2.2 1 5.5 1.1 6.4 4 0.5 1.5-0.2 3.8-1.5 5.4-1.3 1.5-1.8 2.3-3.4 6.5-1.8 4.6-6.5 2.9-6.8-0.4z"/>
								</g>
								<path id="&lt;Path&gt;" class="s2" d="m422.8 50.2c-0.8 2-2.2 4.5-5.2 4.9-2.3 0.3-4.3-1.7-3.5-4.1 0.5-1.3 3.1-4.4 6.2-4.8 3.1-0.4 3.3 2.2 2.5 4z"/>
								<path id="&lt;Path&gt;" class="s2" d="m431 57c-1.6 1.5-3.8 3.3-6.7 2.6-2.3-0.6-3.4-3.1-1.7-5.1 0.9-1.1 4.4-2.9 7.5-2.2 3 0.7 2.2 3.3 0.9 4.7z"/>
								<path id="&lt;Path&gt;" class="s2" d="m427.3 76.6c-3 1-6.7-0.5-7.7-1.5-1.8-1.8-1-4.5 1.3-5.3 2.8-0.9 5.2 0.7 6.8 2.1 1.5 1.3 2.5 3.7-0.4 4.7z"/>
								<path id="&lt;Path&gt;" class="s2" d="m433.6 66.6c-2.3 2.1-6.3 2.1-7.6 1.6-2.4-1-2.7-3.7-0.9-5.4 2.2-1.9 5-1.4 7.1-0.7 1.9 0.5 3.7 2.4 1.4 4.5z"/>
							</g>
						</g>
						<g id="&lt;Group&gt;">
							<g id="&lt;Group&gt;">
								<g id="&lt;Group&gt;">
									<path id="&lt;Path&gt;" class="s2" d="m495.4 356.2c-3.3 0-2.7 0-7.1 0.1-4.4 0.1-9 4.9-11.2 1.7-2.2-3.2 1.9-5.9 3.2-8.3 1.2-2 1.5-5.3 4.5-6.1 1.6-0.4 3.8 0.5 5.3 2 1.4 1.4 2.1 1.9 6.2 3.8 4.5 2.1 2.5 6.7-0.9 6.8z"/>
								</g>
								<path id="&lt;Path&gt;" class="s2" d="m473.6 341.7c2 1 4.4 2.6 4.5 5.5 0.2 2.4-1.9 4.3-4.3 3.3-1.3-0.6-4.2-3.4-4.4-6.5-0.2-3.1 2.5-3.2 4.2-2.3z"/>
								<path id="&lt;Path&gt;" class="s2" d="m480.9 334.1c1.5 1.6 3.1 4 2.2 6.8-0.7 2.3-3.4 3.2-5.2 1.4-1-1-2.6-4.7-1.7-7.6 1-3 3.4-2.1 4.7-0.6z"/>
								<path id="&lt;Path&gt;" class="s2" d="m500.3 339.2c0.8 3-1 6.6-2.1 7.5-1.9 1.7-4.5 0.7-5.1-1.6-0.8-2.9 1-5.2 2.5-6.7 1.4-1.4 3.9-2.2 4.7 0.8z"/>
								<path id="&lt;Path&gt;" class="s2" d="m490.7 332.1c1.9 2.5 1.7 6.5 1.1 7.8-1.1 2.3-3.9 2.4-5.4 0.5-1.8-2.4-1.1-5.1-0.3-7.2 0.7-1.8 2.7-3.5 4.6-1.1z"/>
							</g>
							<g id="&lt;Group&gt;">
								<g id="&lt;Group&gt;">
									<path id="&lt;Path&gt;" class="s2" d="m523.5 339.8c-3.1-1.3-2.6-1.1-6.6-2.8-4-1.6-10.3 0.9-11-2.9-0.7-3.8 4.1-4.7 6.3-6.3 1.9-1.4 3.5-4.3 6.5-3.8 1.7 0.3 3.3 2 4.1 3.9 0.7 1.9 1.2 2.7 4.1 6 3.3 3.8-0.4 7.2-3.4 5.9z"/>
								</g>
								<path id="&lt;Path&gt;" class="s2" d="m509.3 317.8c1.4 1.7 2.9 4.1 1.9 6.9-0.8 2.2-3.5 3-5.3 1.2-0.9-1-2.4-4.8-1.3-7.7 1-2.9 3.4-1.9 4.7-0.4z"/>
								<path id="&lt;Path&gt;" class="s2" d="m519 313.8c0.7 2 1.3 4.9-0.7 7.1-1.6 1.8-4.4 1.5-5.3-0.9-0.6-1.2-0.6-5.3 1.5-7.6 2.1-2.3 3.9-0.5 4.5 1.4z"/>
								<path id="&lt;Path&gt;" class="s2" d="m534.7 326.2c-0.5 3-3.6 5.6-4.9 6.1-2.4 0.8-4.4-1.3-4.1-3.6 0.5-3 3-4.3 5-5.1 1.9-0.7 4.5-0.5 4 2.6z"/>
								<path id="&lt;Path&gt;" class="s2" d="m528.8 315.9c0.8 3-1.1 6.6-2.1 7.5-2 1.7-4.6 0.6-5.2-1.7-0.7-2.9 1.1-5.1 2.6-6.7 1.4-1.3 3.9-2.1 4.7 0.9z"/>
							</g>
						</g>
						<g id="&lt;Group&gt;">
							<g id="&lt;Group&gt;">
								<g id="&lt;Group&gt;">
									<path id="&lt;Path&gt;" class="s2" d="m421 323.9c-3 1.6-2.4 1.3-6.3 3.4-3.8 2.1-5.6 8.6-9 6.9-3.5-1.8-1.2-6.2-1.1-8.9 0.1-2.4-1.2-5.4 1.1-7.5 1.2-1.1 3.6-1.3 5.6-0.8 1.9 0.6 2.8 0.7 7.3 0.5 5-0.2 5.3 4.8 2.4 6.4z"/>
								</g>
								<path id="&lt;Path&gt;" class="s2" d="m395 321.4c2.1-0.1 5 0.2 6.5 2.7 1.3 2.1 0.3 4.7-2.3 4.9-1.4 0.1-5.3-1.1-6.9-3.7-1.6-2.7 0.7-3.9 2.7-3.9z"/>
								<path id="&lt;Path&gt;" class="s2" d="m397.8 311.2c2.1 0.8 4.6 2.1 5.2 5 0.4 2.3-1.5 4.4-4 3.7-1.4-0.4-4.5-2.9-5.1-6-0.5-3 2.1-3.4 3.9-2.7z"/>
								<path id="&lt;Path&gt;" class="s2" d="m417.3 306.6c2.1 2.3 2.2 6.3 1.7 7.6-0.9 2.5-3.7 2.7-5.3 1-2-2.2-1.5-5-0.9-7.1 0.6-1.9 2.4-3.8 4.5-1.5z"/>
								<path id="&lt;Path&gt;" class="s2" d="m405.6 304.9c2.8 1.2 4.5 4.9 4.5 6.3 0.1 2.6-2.3 4-4.5 3-2.7-1.2-3.4-4-3.6-6.2-0.2-1.9 0.7-4.4 3.6-3.1z"/>
							</g>
							<g id="&lt;Group&gt;">
								<g id="&lt;Group&gt;">
									<path id="&lt;Path&gt;" class="s2" d="m438.1 296.3c-3.4 0.3-2.8 0.3-7.1 0.6-4.4 0.4-8.7 5.6-11.1 2.6-2.4-3 1.4-6.1 2.6-8.5 1.1-2.1 1.1-5.5 4-6.4 1.6-0.5 3.9 0.2 5.4 1.5 1.6 1.3 2.3 1.8 6.5 3.4 4.7 1.8 3 6.5-0.3 6.8z"/>
								</g>
								<path id="&lt;Path&gt;" class="s2" d="m415.2 283.5c2 0.8 4.6 2.3 5 5.2 0.3 2.4-1.7 4.3-4.2 3.5-1.3-0.4-4.3-3.1-4.8-6.1-0.4-3.1 2.2-3.3 4-2.6z"/>
								<path id="&lt;Path&gt;" class="s2" d="m421.9 275.4c1.6 1.5 3.5 3.7 2.8 6.6-0.6 2.3-3.2 3.4-5.2 1.8-1-0.9-2.9-4.5-2.2-7.5 0.7-3 3.2-2.3 4.6-0.9z"/>
								<path id="&lt;Path&gt;" class="s2" d="m441.6 279c1 2.9-0.5 6.7-1.5 7.7-1.8 1.8-4.4 1-5.2-1.3-1-2.8 0.6-5.2 2-6.9 1.3-1.4 3.7-2.5 4.7 0.5z"/>
								<path id="&lt;Path&gt;" class="s2" d="m431.6 272.7c2.1 2.3 2.1 6.3 1.6 7.6-0.9 2.4-3.7 2.7-5.3 0.9-2-2.2-1.5-5-0.8-7.1 0.5-1.9 2.4-3.7 4.5-1.4z"/>
							</g>
						</g>
						<g id="&lt;Group&gt;">
							<g id="&lt;Group&gt;">
								<g id="&lt;Group&gt;">
									<path id="&lt;Path&gt;" class="s2" d="m117.7 280.9c-3.4-0.2-2.8-0.2-7.1-0.5-4.4-0.3-9.5 4.1-11.4 0.7-1.9-3.4 2.5-5.8 4-8 1.4-1.9 2-5.2 5-5.6 1.6-0.3 3.8 0.8 5.1 2.4 1.3 1.5 2 2.1 5.8 4.4 4.4 2.5 1.9 6.9-1.4 6.6z"/>
								</g>
								<path id="&lt;Path&gt;" class="s2" d="m97.3 264.5c1.8 1.2 4.1 3 4 6-0.1 2.4-2.4 4-4.7 2.7-1.2-0.6-3.8-3.7-3.7-6.8 0.1-3.1 2.7-2.9 4.4-1.9z"/>
								<path id="&lt;Path&gt;" class="s2" d="m105.3 257.6c1.3 1.8 2.7 4.3 1.5 7-0.9 2.2-3.6 2.9-5.3 0.9-0.9-1.1-2.2-4.9-1-7.8 1.2-2.8 3.6-1.6 4.8-0.1z"/>
								<path id="&lt;Path&gt;" class="s2" d="m124.1 264.5c0.5 3-1.6 6.5-2.8 7.3-2.1 1.5-4.6 0.2-5-2.1-0.5-3 1.5-5.1 3.2-6.5 1.5-1.2 4-1.8 4.6 1.3z"/>
								<path id="&lt;Path&gt;" class="s2" d="m115.2 256.6c1.7 2.6 1.1 6.6 0.3 7.8-1.3 2.2-4.1 2-5.4 0-1.6-2.5-0.6-5.2 0.4-7.2 0.9-1.7 3-3.2 4.7-0.6z"/>
							</g>
							<g id="&lt;Group&gt;">
								<g id="&lt;Group&gt;">
									<path id="&lt;Path&gt;" class="s2" d="m147.1 267.2c-2.9-1.6-2.5-1.3-6.3-3.3-3.9-2.1-10.3-0.1-10.7-3.9-0.3-3.9 4.6-4.3 6.9-5.7 2-1.2 3.9-4 6.8-3.2 1.6 0.4 3.2 2.3 3.7 4.2 0.6 2 1 2.8 3.6 6.4 2.9 4.1-1.1 7.1-4 5.5z"/>
								</g>
								<path id="&lt;Path&gt;" class="s2" d="m135 244c1.2 1.8 2.6 4.4 1.3 7.1-1 2.1-3.8 2.7-5.4 0.6-0.8-1.1-2-4.9-0.6-7.7 1.3-2.9 3.6-1.6 4.7 0z"/>
								<path id="&lt;Path&gt;" class="s2" d="m145.1 240.9c0.5 2.1 0.8 5-1.4 7-1.7 1.7-4.5 1.2-5.2-1.3-0.4-1.3-0.1-5.4 2.2-7.5 2.3-2.1 4-0.1 4.4 1.8z"/>
								<path id="&lt;Path&gt;" class="s2" d="m159.6 254.7c-0.8 3-4.1 5.3-5.5 5.6-2.5 0.6-4.3-1.6-3.7-3.9 0.7-2.9 3.4-4 5.5-4.6 1.8-0.6 4.4-0.1 3.7 2.9z"/>
								<path id="&lt;Path&gt;" class="s2" d="m154.6 243.9c0.5 3.1-1.7 6.5-2.8 7.3-2.1 1.5-4.6 0.2-5-2.2-0.4-2.9 1.6-5 3.3-6.3 1.5-1.3 4-1.8 4.5 1.2z"/>
							</g>
						</g>
						<g id="&lt;Group&gt;">
							<g id="&lt;Group&gt;">
								<g id="&lt;Group&gt;">
									<path id="&lt;Path&gt;" class="s2" d="m492.4 260c-3.4-0.2-2.8-0.1-7.2-0.4-4.3-0.3-9.4 4.2-11.3 0.9-1.9-3.4 2.4-5.8 3.9-8.1 1.4-1.9 1.9-5.2 4.9-5.7 1.7-0.3 3.8 0.8 5.2 2.4 1.3 1.5 2 2.1 5.8 4.3 4.4 2.5 2 6.9-1.3 6.6z"/>
								</g>
								<path id="&lt;Path&gt;" class="s2" d="m471.8 243.9c1.8 1.1 4.1 2.9 4 5.9 0 2.4-2.3 4-4.6 2.8-1.2-0.6-3.8-3.7-3.8-6.8 0.1-3.1 2.7-2.9 4.4-1.9z"/>
								<path id="&lt;Path&gt;" class="s2" d="m479.7 236.9c1.3 1.7 2.8 4.2 1.6 7-0.9 2.2-3.6 2.9-5.3 0.9-0.9-1-2.3-4.8-1.1-7.7 1.2-2.9 3.6-1.7 4.8-0.2z"/>
								<path id="&lt;Path&gt;" class="s2" d="m498.5 243.5c0.6 3.1-1.5 6.5-2.6 7.4-2.1 1.5-4.6 0.3-5-2.1-0.6-2.9 1.4-5 3-6.4 1.5-1.3 4.1-1.9 4.6 1.1z"/>
								<path id="&lt;Path&gt;" class="s2" d="m489.6 235.7c1.7 2.6 1.1 6.6 0.4 7.8-1.3 2.3-4.1 2.1-5.4 0.1-1.6-2.5-0.7-5.2 0.3-7.1 0.9-1.8 3-3.4 4.7-0.8z"/>
							</g>
							<g id="&lt;Group&gt;">
								<g id="&lt;Group&gt;">
									<path id="&lt;Path&gt;" class="s2" d="m521.6 246c-3-1.6-2.5-1.3-6.3-3.3-3.9-2-10.3 0.1-10.7-3.8-0.5-3.8 4.4-4.3 6.8-5.7 2-1.3 3.8-4 6.8-3.3 1.6 0.4 3.1 2.3 3.7 4.2 0.6 1.9 1 2.8 3.7 6.3 2.9 4.1-1 7.1-4 5.6z"/>
								</g>
								<path id="&lt;Path&gt;" class="s2" d="m509.2 222.9c1.3 1.8 2.7 4.4 1.4 7-1 2.2-3.7 2.8-5.4 0.8-0.8-1.1-2-4.9-0.7-7.8 1.3-2.8 3.6-1.6 4.7 0z"/>
								<path id="&lt;Path&gt;" class="s2" d="m519.3 219.7c0.5 2.1 0.8 5-1.3 7-1.7 1.7-4.5 1.2-5.3-1.2-0.4-1.4-0.1-5.4 2.2-7.6 2.2-2.1 3.9-0.1 4.4 1.8z"/>
								<path id="&lt;Path&gt;" class="s2" d="m533.9 233.3c-0.7 3-4 5.4-5.4 5.7-2.5 0.6-4.3-1.6-3.7-3.9 0.6-2.9 3.3-4.1 5.4-4.7 1.8-0.6 4.4-0.1 3.7 2.9z"/>
								<path id="&lt;Path&gt;" class="s2" d="m528.8 222.6c0.6 3.1-1.6 6.5-2.7 7.3-2.1 1.5-4.6 0.3-5-2.1-0.5-2.9 1.5-5 3.2-6.4 1.5-1.3 4-1.9 4.5 1.2z"/>
							</g>
						</g>
						<g id="&lt;Group&gt;">
							<g id="&lt;Group&gt;">
								<g id="&lt;Group&gt;">
									<path id="&lt;Path&gt;" class="s2" d="m498.2 73.3c-3.3 0.3-2.8 0.3-7.1 0.7-4.3 0.4-8.6 5.6-11.1 2.6-2.4-3 1.5-6.1 2.6-8.5 1.1-2.2 1.1-5.5 4-6.4 1.6-0.6 3.9 0.2 5.4 1.5 1.6 1.3 2.4 1.7 6.5 3.3 4.7 1.8 3 6.5-0.3 6.8z"/>
								</g>
								<path id="&lt;Path&gt;" class="s2" d="m475.3 60.6c2 0.9 4.6 2.3 5 5.2 0.3 2.4-1.7 4.3-4.1 3.5-1.4-0.4-4.4-3-4.9-6.1-0.4-3.1 2.2-3.3 4-2.6z"/>
								<path id="&lt;Path&gt;" class="s2" d="m482 52.5c1.6 1.5 3.4 3.7 2.7 6.6-0.5 2.3-3.1 3.4-5.1 1.8-1-0.9-2.9-4.5-2.2-7.5 0.7-3 3.2-2.3 4.6-0.9z"/>
								<path id="&lt;Path&gt;" class="s2" d="m501.7 56c1 2.9-0.5 6.7-1.5 7.7-1.7 1.8-4.4 1-5.2-1.3-1-2.7 0.6-5.2 2-6.8 1.2-1.5 3.7-2.5 4.7 0.4z"/>
								<path id="&lt;Path&gt;" class="s2" d="m491.6 49.7c2.1 2.3 2.2 6.4 1.7 7.7-0.9 2.4-3.7 2.7-5.4 0.9-2-2.2-1.4-5-0.8-7.1 0.6-1.9 2.4-3.8 4.5-1.5z"/>
							</g>
							<g id="&lt;Group&gt;">
								<g id="&lt;Group&gt;">
									<path id="&lt;Path&gt;" class="s2" d="m524.9 54.8c-3.2-1.1-2.7-0.8-6.8-2.2-4.1-1.4-10.2 1.7-11.2-2-1-3.8 3.8-5.1 5.8-6.8 1.8-1.6 3.2-4.6 6.2-4.3 1.7 0.1 3.5 1.7 4.4 3.5 0.9 1.8 1.4 2.6 4.6 5.7 3.6 3.5 0.1 7.2-3 6.1z"/>
								</g>
								<path id="&lt;Path&gt;" class="s2" d="m509 34c1.5 1.6 3.3 3.9 2.5 6.7-0.7 2.3-3.3 3.3-5.2 1.6-1-0.9-2.8-4.6-2-7.6 0.9-3 3.4-2.1 4.7-0.7z"/>
								<path id="&lt;Path&gt;" class="s2" d="m518.4 29.2c0.9 2 1.7 4.8-0.1 7.2-1.5 1.9-4.3 1.9-5.4-0.5-0.7-1.2-1-5.2 0.9-7.7 1.9-2.5 3.9-0.8 4.6 1z"/>
								<path id="&lt;Path&gt;" class="s2" d="m535 40.4c-0.2 3.1-3.1 5.9-4.4 6.4-2.4 1-4.5-0.9-4.3-3.2 0.2-3 2.6-4.6 4.6-5.5 1.7-0.9 4.4-0.8 4.1 2.3z"/>
								<path id="&lt;Path&gt;" class="s2" d="m528.3 30.6c1 2.9-0.5 6.6-1.5 7.6-1.8 1.9-4.5 1-5.3-1.3-0.9-2.8 0.7-5.2 2.1-6.8 1.3-1.5 3.7-2.5 4.7 0.5z"/>
							</g>
						</g>
						<g id="&lt;Group&gt;">
							<g id="&lt;Group&gt;">
								<g id="&lt;Group&gt;">
									<path id="&lt;Path&gt;" class="s2" d="m199.4 76.7c-3.2 0.7-2.7 0.6-6.9 1.5-4.3 0.9-7.9 6.6-10.7 3.9-2.8-2.8 0.7-6.3 1.6-8.8 0.8-2.3 0.4-5.6 3.2-6.9 1.5-0.7 3.9-0.2 5.5 0.9 1.7 1.1 2.6 1.5 6.9 2.6 4.8 1.2 3.7 6.1 0.4 6.8z"/>
								</g>
								<path id="&lt;Path&gt;" class="s2" d="m175.3 66.7c2.1 0.6 4.7 1.7 5.5 4.6 0.6 2.3-1.2 4.5-3.7 3.9-1.4-0.2-4.7-2.5-5.5-5.5-0.8-3 1.8-3.5 3.7-3z"/>
								<path id="&lt;Path&gt;" class="s2" d="m181 57.8c1.7 1.3 3.8 3.3 3.4 6.3-0.2 2.4-2.7 3.8-4.8 2.3-1.2-0.7-3.5-4-3.1-7.1 0.3-3.1 2.9-2.7 4.5-1.5z"/>
								<path id="&lt;Path&gt;" class="s2" d="m200.9 59.1c1.4 2.8 0.3 6.7-0.5 7.8-1.6 2-4.3 1.5-5.4-0.6-1.3-2.7 0-5.3 1.2-7.1 1.1-1.6 3.4-2.9 4.7-0.1z"/>
								<path id="&lt;Path&gt;" class="s2" d="m190.2 54c2.4 2.1 2.9 6.1 2.5 7.4-0.6 2.5-3.3 3.1-5.2 1.5-2.2-1.9-2-4.8-1.6-6.9 0.4-1.9 2-4 4.3-2z"/>
							</g>
							<g id="&lt;Group&gt;">
								<g id="&lt;Group&gt;">
									<path id="&lt;Path&gt;" class="s2" d="m223.8 55.2c-3.3-0.6-2.7-0.5-7-1.4-4.2-0.9-9.9 2.9-11.3-0.7-1.5-3.6 3.1-5.4 5-7.4 1.6-1.8 2.6-4.9 5.7-5 1.6 0 3.6 1.3 4.7 3 1.1 1.7 1.7 2.4 5.2 5.2 4 3 1 7-2.3 6.3z"/>
								</g>
								<path id="&lt;Path&gt;" class="s2" d="m205.7 36.4c1.7 1.4 3.7 3.5 3.2 6.4-0.4 2.3-2.9 3.7-5 2.2-1.1-0.9-3.3-4.3-2.8-7.3 0.5-3.1 3.1-2.6 4.6-1.3z"/>
								<path id="&lt;Path&gt;" class="s2" d="m214.5 30.6c1 1.9 2.2 4.5 0.6 7.1-1.2 2-4 2.3-5.4 0.2-0.7-1.2-1.5-5.1 0.1-7.8 1.5-2.7 3.7-1.3 4.7 0.5z"/>
								<path id="&lt;Path&gt;" class="s2" d="m232.3 39.7c0.1 3.1-2.5 6.3-3.7 6.9-2.3 1.3-4.6-0.3-4.7-2.7-0.1-3 2.1-4.8 4-6 1.6-1 4.2-1.3 4.4 1.8z"/>
								<path id="&lt;Path&gt;" class="s2" d="m224.5 30.8c1.3 2.8 0.2 6.7-0.7 7.8-1.6 2-4.3 1.4-5.4-0.7-1.2-2.7 0.1-5.3 1.3-7.1 1.1-1.6 3.5-2.8 4.8 0z"/>
							</g>
						</g>
						<g id="&lt;Group&gt;">
							<g id="&lt;Group&gt;">
								<g id="&lt;Group&gt;">
									<path id="&lt;Path&gt;" class="s2" d="m18.2 304.1c-2.2-2.6-1.8-2.1-4.6-5.5-2.8-3.3-9.5-3.9-8.4-7.7 1.1-3.7 5.9-2.2 8.5-2.6 2.4-0.4 5.2-2.2 7.6-0.3 1.3 1 2 3.3 1.8 5.3-0.2 2-0.2 2.9 0.9 7.3 1.1 4.8-3.7 6.1-5.8 3.5z"/>
								</g>
								<path id="&lt;Path&gt;" class="s2" d="m15.8 278.1c0.5 2.1 0.7 5-1.5 6.9-1.8 1.7-4.5 1.1-5.2-1.4-0.4-1.3 0.1-5.3 2.4-7.4 2.2-2.1 3.9-0.1 4.3 1.9z"/>
								<path id="&lt;Path&gt;" class="s2" d="m26.3 279c-0.3 2.1-1.1 4.9-3.9 6-2.3 0.8-4.6-0.7-4.4-3.3 0.2-1.3 2-4.9 4.9-6 2.9-1.1 3.7 1.4 3.4 3.3z"/>
								<path id="&lt;Path&gt;" class="s2" d="m34.4 297.3c-1.8 2.5-5.8 3.3-7.1 3.1-2.6-0.5-3.4-3.1-2-5.1 1.8-2.4 4.7-2.4 6.8-2.2 2 0.2 4.2 1.7 2.3 4.2z"/>
								<path id="&lt;Path&gt;" class="s2" d="m34 285.4c-0.7 3-4 5.4-5.4 5.7-2.5 0.6-4.3-1.6-3.8-3.9 0.7-2.9 3.4-4.1 5.4-4.7 1.9-0.6 4.5-0.1 3.8 2.9z"/>
							</g>
							<g id="&lt;Group&gt;">
								<g id="&lt;Group&gt;">
									<path id="&lt;Path&gt;" class="s2" d="m48.5 315.8c-1-3.3-0.8-2.7-2-6.9-1.2-4.2-7.1-7.4-4.6-10.4 2.5-2.9 6.2 0.3 8.9 1 2.3 0.6 5.5 0.1 7 2.7 0.8 1.5 0.5 3.9-0.5 5.6-1 1.8-1.3 2.7-2.1 7-0.9 5-5.8 4.2-6.7 1z"/>
								</g>
								<path id="&lt;Path&gt;" class="s2" d="m56.8 291c-0.5 2.1-1.4 4.8-4.2 5.8-2.3 0.7-4.6-0.9-4.2-3.4 0.2-1.4 2.2-4.9 5.1-5.9 3-1 3.7 1.6 3.3 3.5z"/>
								<path id="&lt;Path&gt;" class="s2" d="m66 296.1c-1.2 1.8-3 4-6 3.8-2.4-0.1-4-2.4-2.7-4.7 0.7-1.2 3.8-3.7 7-3.5 3.1 0.1 2.8 2.7 1.7 4.4z"/>
								<path id="&lt;Path&gt;" class="s2" d="m66.1 316.1c-2.7 1.5-6.6 0.7-7.8-0.1-2.2-1.4-1.8-4.2 0.3-5.4 2.5-1.5 5.2-0.3 7.1 0.7 1.7 1 3.1 3.2 0.4 4.8z"/>
								<path id="&lt;Path&gt;" class="s2" d="m70.4 305c-1.8 2.5-5.8 3.3-7.2 3-2.5-0.4-3.3-3.1-1.8-5.1 1.7-2.3 4.6-2.3 6.8-2.1 1.9 0.3 4.1 1.7 2.2 4.2z"/>
							</g>
						</g>
						<g id="&lt;Group&gt;">
							<g id="&lt;Group&gt;">
								<g id="&lt;Group&gt;">
									<path id="&lt;Path&gt;" class="s2" d="m269 217.5c-3.3-0.5-2.8-0.3-7.1-0.9-4.3-0.5-9.6 3.7-11.3 0.2-1.8-3.4 2.7-5.6 4.3-7.8 1.5-1.8 2.2-5.1 5.2-5.4 1.7-0.2 3.8 1 5 2.6 1.3 1.6 1.9 2.3 5.7 4.7 4.2 2.7 1.5 7-1.8 6.6z"/>
								</g>
								<path id="&lt;Path&gt;" class="s2" d="m249.4 200.2c1.7 1.2 3.9 3.1 3.7 6.1-0.2 2.4-2.6 3.9-4.8 2.6-1.2-0.7-3.6-3.9-3.4-7 0.2-3.1 2.9-2.8 4.5-1.7z"/>
								<path id="&lt;Path&gt;" class="s2" d="m257.6 193.6c1.2 1.8 2.6 4.4 1.3 7.1-1.1 2.1-3.8 2.7-5.4 0.7-0.9-1.1-2-5-0.6-7.8 1.3-2.8 3.6-1.6 4.7 0z"/>
								<path id="&lt;Path&gt;" class="s2" d="m276.1 201.3c0.4 3.1-1.9 6.4-3 7.2-2.2 1.4-4.6 0-4.9-2.3-0.4-3 1.7-5 3.4-6.3 1.5-1.2 4.1-1.7 4.5 1.4z"/>
								<path id="&lt;Path&gt;" class="s2" d="m267.6 193c1.6 2.7 0.8 6.7 0 7.8-1.4 2.2-4.2 1.9-5.4-0.2-1.5-2.6-0.4-5.2 0.7-7.1 0.9-1.7 3.1-3.2 4.7-0.5z"/>
							</g>
							<g id="&lt;Group&gt;">
								<g id="&lt;Group&gt;">
									<path id="&lt;Path&gt;" class="s2" d="m299 205c-2.9-1.7-2.4-1.3-6.2-3.6-3.7-2.2-10.2-0.5-10.4-4.3-0.3-3.9 4.7-4.1 7.1-5.4 2.1-1.2 4-3.8 6.9-2.9 1.6 0.5 3.1 2.4 3.5 4.4 0.5 2 0.9 2.8 3.3 6.5 2.8 4.2-1.3 7-4.2 5.3z"/>
								</g>
								<path id="&lt;Path&gt;" class="s2" d="m287.9 181.3c1.2 1.9 2.4 4.5 1 7.1-1.1 2.1-3.9 2.6-5.4 0.5-0.8-1.2-1.7-5.1-0.3-7.8 1.4-2.8 3.7-1.4 4.7 0.2z"/>
								<path id="&lt;Path&gt;" class="s2" d="m298.1 178.7c0.4 2.1 0.6 5-1.6 6.9-1.9 1.6-4.6 1-5.2-1.5-0.4-1.4 0.2-5.4 2.5-7.4 2.4-2.1 4 0 4.3 2z"/>
								<path id="&lt;Path&gt;" class="s2" d="m312 193.1c-0.9 3-4.3 5.1-5.7 5.4-2.5 0.4-4.2-1.9-3.5-4.2 0.8-2.8 3.5-3.8 5.6-4.3 1.9-0.5 4.5 0.1 3.6 3.1z"/>
								<path id="&lt;Path&gt;" class="s2" d="m307.5 182.1c0.4 3.1-1.9 6.4-3.1 7.2-2.2 1.4-4.6-0.1-4.9-2.4-0.3-3 1.8-5 3.5-6.3 1.6-1.2 4.2-1.6 4.5 1.5z"/>
							</g>
						</g>
						<g id="&lt;Group&gt;">
							<g id="&lt;Group&gt;">
								<g id="&lt;Group&gt;">
									<path id="&lt;Path&gt;" class="s2" d="m379.9 464.2c-2.7-1.9-2.3-1.6-5.8-4.1-3.6-2.5-10.2-1.2-10.2-5.1 0.1-3.9 5.1-3.7 7.5-4.9 2.2-0.9 4.4-3.4 7.2-2.3 1.5 0.6 2.8 2.7 3.2 4.6 0.3 2 0.6 2.9 2.8 6.8 2.4 4.4-1.9 6.9-4.7 5z"/>
								</g>
								<path id="&lt;Path&gt;" class="s2" d="m370.7 439.7c1 2 2 4.7 0.4 7.2-1.3 2-4.1 2.2-5.4 0-0.7-1.2-1.4-5.2 0.3-7.8 1.6-2.6 3.8-1.1 4.7 0.6z"/>
								<path id="&lt;Path&gt;" class="s2" d="m381 437.8c0.3 2.2 0.2 5.1-2.1 6.8-2 1.4-4.7 0.6-5.1-1.9-0.3-1.4 0.6-5.3 3.1-7.2 2.5-1.8 3.9 0.4 4.1 2.3z"/>
								<path id="&lt;Path&gt;" class="s2" d="m393.8 453.2c-1.1 2.9-4.7 4.8-6.1 5-2.6 0.2-4.1-2.2-3.2-4.4 1-2.8 3.8-3.6 5.9-3.9 2-0.4 4.5 0.4 3.4 3.3z"/>
								<path id="&lt;Path&gt;" class="s2" d="m390.1 441.9c0.2 3.1-2.4 6.3-3.6 6.9-2.3 1.3-4.6-0.3-4.7-2.7-0.1-3 2.1-4.8 4-6 1.6-1 4.2-1.3 4.3 1.8z"/>
							</g>
							<g id="&lt;Group&gt;">
								<g id="&lt;Group&gt;">
									<path id="&lt;Path&gt;" class="s2" d="m412.3 467.3c-1.8-2.9-1.5-2.4-3.8-6.1-2.3-3.7-8.8-5.3-7.2-8.8 1.6-3.5 6.1-1.4 8.8-1.4 2.4 0 5.4-1.4 7.5 0.7 1.2 1.2 1.5 3.6 1 5.6-0.5 1.9-0.5 2.8-0.1 7.3 0.5 5-4.5 5.5-6.2 2.7z"/>
								</g>
								<path id="&lt;Path&gt;" class="s2" d="m413.6 441.1c0.1 2.2 0 5.1-2.5 6.8-2 1.3-4.6 0.4-5-2.2-0.2-1.4 0.9-5.3 3.4-7 2.6-1.8 4 0.5 4.1 2.4z"/>
								<path id="&lt;Path&gt;" class="s2" d="m423.9 443.6c-0.7 2-1.9 4.7-4.8 5.3-2.3 0.5-4.5-1.3-3.8-3.8 0.3-1.3 2.6-4.6 5.7-5.3 3-0.7 3.4 1.9 2.9 3.8z"/>
								<path id="&lt;Path&gt;" class="s2" d="m429.3 462.8c-2.2 2.2-6.2 2.5-7.5 2.1-2.5-0.8-2.9-3.6-1.2-5.3 2.1-2.1 4.9-1.8 7-1.2 1.9 0.4 3.9 2.2 1.7 4.4z"/>
								<path id="&lt;Path&gt;" class="s2" d="m430.5 451c-1.1 2.9-4.7 4.7-6.1 4.8-2.6 0.3-4-2.1-3.2-4.4 1.1-2.7 3.9-3.5 6-3.8 2-0.3 4.5 0.5 3.3 3.4z"/>
							</g>
						</g>
						<g id="&lt;Group&gt;">
							<g id="&lt;Group&gt;">
								<g id="&lt;Group&gt;">
									<path id="&lt;Path&gt;" class="s2" d="m146.7 525.4c-3.3-0.1-2.7 0-7.1-0.2-4.3-0.2-9.3 4.4-11.3 1.1-2-3.4 2.2-5.9 3.7-8.1 1.3-2 1.8-5.3 4.8-5.9 1.6-0.3 3.8 0.8 5.2 2.3 1.3 1.5 2.1 2 6 4.2 4.4 2.4 2.1 6.8-1.3 6.6z"/>
								</g>
								<path id="&lt;Path&gt;" class="s2" d="m125.8 509.8c1.9 1.1 4.2 2.8 4.2 5.8 0 2.4-2.2 4-4.6 2.9-1.2-0.6-3.9-3.6-3.9-6.7 0-3.1 2.6-3 4.3-2z"/>
								<path id="&lt;Path&gt;" class="s2" d="m133.5 502.6c1.4 1.7 2.9 4.2 1.8 6.9-0.8 2.2-3.5 3-5.3 1.1-0.9-1-2.3-4.8-1.2-7.7 1.1-2.9 3.5-1.8 4.7-0.3z"/>
								<path id="&lt;Path&gt;" class="s2" d="m152.5 508.8c0.7 3-1.3 6.5-2.4 7.4-2.1 1.6-4.6 0.4-5.1-2-0.6-2.9 1.3-5 2.9-6.5 1.5-1.3 4-2 4.6 1.1z"/>
								<path id="&lt;Path&gt;" class="s2" d="m143.4 501.2c1.8 2.6 1.3 6.6 0.6 7.8-1.2 2.2-4 2.1-5.4 0.2-1.7-2.5-0.8-5.2 0.2-7.2 0.8-1.7 2.9-3.4 4.6-0.8z"/>
							</g>
							<g id="&lt;Group&gt;">
								<g id="&lt;Group&gt;">
									<path id="&lt;Path&gt;" class="s2" d="m175.7 510.7c-3-1.5-2.5-1.2-6.5-3.1-3.9-1.9-10.2 0.3-10.7-3.5-0.6-3.9 4.4-4.5 6.6-6 2-1.2 3.8-4 6.8-3.4 1.6 0.4 3.2 2.2 3.8 4.2 0.6 1.9 1.1 2.7 3.8 6.2 3 4-0.8 7.1-3.8 5.6z"/>
								</g>
								<path id="&lt;Path&gt;" class="s2" d="m162.8 488c1.3 1.7 2.7 4.2 1.5 6.9-0.9 2.3-3.7 2.9-5.3 0.9-0.9-1-2.2-4.9-0.9-7.7 1.2-2.9 3.5-1.7 4.7-0.1z"/>
								<path id="&lt;Path&gt;" class="s2" d="m172.8 484.5c0.5 2.1 0.9 5-1.2 7.1-1.7 1.7-4.4 1.3-5.3-1.2-0.4-1.3-0.2-5.3 2-7.5 2.2-2.2 4-0.3 4.5 1.6z"/>
								<path id="&lt;Path&gt;" class="s2" d="m187.7 497.8c-0.7 3-3.9 5.4-5.3 5.8-2.5 0.6-4.3-1.5-3.8-3.8 0.6-2.9 3.2-4.1 5.3-4.8 1.8-0.6 4.4-0.2 3.8 2.8z"/>
								<path id="&lt;Path&gt;" class="s2" d="m182.4 487.2c0.6 3-1.5 6.5-2.6 7.4-2 1.5-4.6 0.3-5-2-0.6-2.9 1.3-5.1 3-6.5 1.4-1.3 4-2 4.6 1.1z"/>
							</g>
						</g>
						<g id="&lt;Group&gt;">
							<g id="&lt;Group&gt;">
								<g id="&lt;Group&gt;">
									<path id="&lt;Path&gt;" class="s2" d="m30.1 80.8c-3.3 0.5-2.8 0.5-7.1 1.1-4.3 0.6-8.3 6.1-10.9 3.2-2.6-2.9 1.1-6.2 2.2-8.7 0.9-2.2 0.8-5.5 3.6-6.6 1.5-0.6 3.9 0 5.5 1.2 1.6 1.2 2.4 1.7 6.6 3 4.8 1.6 3.4 6.4 0.1 6.8z"/>
								</g>
								<path id="&lt;Path&gt;" class="s2" d="m6.6 69.3c2 0.7 4.6 2 5.2 4.9 0.4 2.4-1.5 4.5-3.9 3.8-1.4-0.4-4.6-2.9-5.2-5.9-0.6-3.1 2-3.4 3.9-2.8z"/>
								<path id="&lt;Path&gt;" class="s2" d="m12.9 60.8c1.6 1.5 3.6 3.6 3 6.5-0.4 2.4-3 3.6-5 2-1.1-0.8-3.2-4.3-2.6-7.3 0.5-3.1 3.1-2.4 4.6-1.2z"/>
								<path id="&lt;Path&gt;" class="s2" d="m32.7 63.4c1.2 2.9-0.2 6.7-1.1 7.7-1.7 2-4.4 1.3-5.3-1-1.1-2.7 0.3-5.2 1.6-6.9 1.2-1.6 3.6-2.7 4.8 0.2z"/>
								<path id="&lt;Path&gt;" class="s2" d="m22.3 57.6c2.2 2.2 2.5 6.2 2.1 7.6-0.8 2.4-3.6 2.8-5.3 1.1-2.1-2-1.8-4.9-1.2-7 0.5-1.9 2.2-3.9 4.4-1.7z"/>
							</g>
							<g id="&lt;Group&gt;">
								<g id="&lt;Group&gt;">
									<path id="&lt;Path&gt;" class="s2" d="m55.8 61c-3.3-0.9-2.7-0.7-6.9-1.9-4.2-1.1-10.1 2.3-11.3-1.4-1.2-3.7 3.5-5.2 5.5-7.1 1.7-1.6 2.9-4.7 6-4.6 1.6 0.1 3.5 1.6 4.5 3.3 1 1.8 1.5 2.5 4.9 5.5 3.7 3.3 0.5 7.1-2.7 6.2z"/>
								</g>
								<path id="&lt;Path&gt;" class="s2" d="m38.9 41c1.6 1.5 3.4 3.7 2.8 6.6-0.6 2.4-3.1 3.5-5.1 1.9-1.1-0.9-3-4.5-2.3-7.5 0.6-3 3.2-2.3 4.6-1z"/>
								<path id="&lt;Path&gt;" class="s2" d="m48 35.8c1 1.9 1.9 4.7 0.2 7.1-1.3 2-4.1 2.1-5.4-0.1-0.7-1.2-1.2-5.2 0.6-7.8 1.7-2.6 3.8-1 4.6 0.8z"/>
								<path id="&lt;Path&gt;" class="s2" d="m65.2 46.1c-0.1 3.1-2.8 6.1-4.1 6.6-2.3 1.1-4.5-0.6-4.5-3 0.1-3 2.4-4.6 4.3-5.7 1.7-0.9 4.4-1 4.3 2.1z"/>
								<path id="&lt;Path&gt;" class="s2" d="m58 36.6c1.1 2.9-0.2 6.7-1.2 7.8-1.7 1.9-4.4 1.2-5.3-1.1-1.1-2.7 0.4-5.2 1.8-6.9 1.2-1.5 3.6-2.7 4.7 0.2z"/>
							</g>
						</g>
						<g id="&lt;Group&gt;">
							<g id="&lt;Group&gt;">
								<g id="&lt;Group&gt;">
									<path id="&lt;Path&gt;" class="s2" d="m357.9 247.6c-2.3-2.5-1.9-2.1-4.9-5.3-2.9-3.2-9.6-3.4-8.7-7.2 0.9-3.8 5.7-2.5 8.4-3.1 2.3-0.5 4.9-2.4 7.5-0.7 1.3 0.9 2.1 3.2 2 5.2-0.1 2 0 2.9 1.3 7.2 1.4 4.8-3.4 6.3-5.6 3.9z"/>
								</g>
								<path id="&lt;Path&gt;" class="s2" d="m354.2 221.7c0.5 2.1 0.9 4.9-1.1 7-1.7 1.7-4.5 1.3-5.3-1.1-0.5-1.3-0.3-5.3 1.9-7.6 2.2-2.2 4-0.2 4.5 1.7z"/>
								<path id="&lt;Path&gt;" class="s2" d="m364.7 222.1c-0.2 2.1-0.9 4.9-3.6 6.1-2.2 1-4.6-0.4-4.5-3 0-1.3 1.7-5 4.6-6.3 2.8-1.2 3.7 1.2 3.5 3.2z"/>
								<path id="&lt;Path&gt;" class="s2" d="m373.8 239.9c-1.7 2.6-5.6 3.6-7 3.5-2.6-0.3-3.5-3-2.2-5 1.6-2.5 4.5-2.6 6.7-2.5 1.9 0.1 4.2 1.4 2.5 4z"/>
								<path id="&lt;Path&gt;" class="s2" d="m372.7 228.1c-0.6 3-3.7 5.5-5.1 5.9-2.5 0.7-4.4-1.3-3.9-3.7 0.5-2.9 3.1-4.2 5.1-4.9 1.9-0.7 4.5-0.4 3.9 2.7z"/>
							</g>
							<g id="&lt;Group&gt;">
								<g id="&lt;Group&gt;">
									<path id="&lt;Path&gt;" class="s2" d="m388.8 257.6c-1.1-3.1-1-2.6-2.4-6.7-1.4-4.1-7.5-7.1-5.1-10.2 2.4-3 6.3 0 8.9 0.6 2.3 0.5 5.6-0.3 7.2 2.3 0.8 1.4 0.7 3.8-0.2 5.6-0.9 1.9-1.2 2.7-1.8 7.1-0.6 5-5.6 4.5-6.6 1.3z"/>
								</g>
								<path id="&lt;Path&gt;" class="s2" d="m395.8 232.4c-0.4 2.2-1.2 5-3.9 6-2.2 0.9-4.6-0.6-4.4-3.1 0.1-1.4 1.9-5 4.8-6.2 2.9-1.1 3.8 1.4 3.5 3.3z"/>
								<path id="&lt;Path&gt;" class="s2" d="m405.3 237c-1.1 1.9-2.9 4.2-5.8 4.2-2.4 0-4.1-2.2-3-4.5 0.6-1.3 3.7-4 6.8-4 3.1 0 2.9 2.6 2 4.3z"/>
								<path id="&lt;Path&gt;" class="s2" d="m406.4 257c-2.6 1.7-6.6 1.1-7.8 0.4-2.2-1.3-2-4.1 0-5.5 2.4-1.6 5.2-0.6 7.1 0.4 1.8 0.9 3.3 3 0.7 4.7z"/>
								<path id="&lt;Path&gt;" class="s2" d="m410.1 245.7c-1.7 2.6-5.6 3.6-7 3.4-2.5-0.3-3.5-3-2.1-5 1.6-2.4 4.5-2.6 6.7-2.4 1.9 0.1 4.2 1.5 2.4 4z"/>
							</g>
						</g>
						<g id="&lt;Group&gt;">
							<g id="&lt;Group&gt;">
								<g id="&lt;Group&gt;">
									<path id="&lt;Path&gt;" class="s2" d="m51.7 449.6c-3.2 0.5-2.7 0.5-7 1.2-4.3 0.7-8.2 6.2-10.8 3.4-2.7-2.8 1-6.2 2-8.7 0.8-2.2 0.6-5.5 3.4-6.7 1.5-0.6 3.9-0.1 5.5 1.1 1.7 1.2 2.5 1.6 6.8 2.9 4.8 1.4 3.4 6.2 0.1 6.8z"/>
								</g>
								<path id="&lt;Path&gt;" class="s2" d="m28 438.6c2.1 0.7 4.7 1.9 5.3 4.8 0.5 2.3-1.3 4.5-3.8 3.8-1.4-0.3-4.6-2.7-5.3-5.8-0.6-3 2-3.4 3.8-2.8z"/>
								<path id="&lt;Path&gt;" class="s2" d="m34.1 430c1.7 1.4 3.7 3.4 3.2 6.4-0.4 2.3-2.9 3.6-5 2.1-1.1-0.8-3.3-4.2-2.8-7.3 0.5-3 3.1-2.5 4.6-1.2z"/>
								<path id="&lt;Path&gt;" class="s2" d="m54 432.1c1.2 2.8 0 6.7-0.9 7.7-1.7 2-4.4 1.4-5.4-0.8-1.2-2.7 0.3-5.3 1.5-7 1.2-1.6 3.5-2.8 4.8 0.1z"/>
								<path id="&lt;Path&gt;" class="s2" d="m43.5 426.5c2.2 2.2 2.6 6.2 2.2 7.5-0.8 2.5-3.5 3-5.3 1.3-2.1-2-1.8-4.9-1.3-7 0.4-1.9 2.1-3.9 4.4-1.8z"/>
							</g>
							<g id="&lt;Group&gt;">
								<g id="&lt;Group&gt;">
									<path id="&lt;Path&gt;" class="s2" d="m77 429.2c-3.2-0.9-2.7-0.7-6.9-1.7-4.3-1.1-10 2.4-11.3-1.3-1.3-3.6 3.4-5.2 5.3-7.1 1.7-1.7 2.8-4.8 5.8-4.8 1.7 0 3.6 1.5 4.6 3.2 1.1 1.8 1.7 2.5 5.1 5.4 3.8 3.2 0.6 7.1-2.6 6.3z"/>
								</g>
								<path id="&lt;Path&gt;" class="s2" d="m59.7 409.6c1.6 1.4 3.5 3.6 2.9 6.5-0.5 2.3-3 3.6-5 2-1.1-0.9-3.2-4.4-2.6-7.4 0.7-3.1 3.2-2.4 4.7-1.1z"/>
								<path id="&lt;Path&gt;" class="s2" d="m68.7 404.1c1 2 2 4.7 0.4 7.2-1.4 2-4.2 2.2-5.5-0.1-0.7-1.2-1.3-5.1 0.4-7.8 1.7-2.6 3.8-1 4.7 0.7z"/>
								<path id="&lt;Path&gt;" class="s2" d="m86.1 414c0 3.1-2.7 6.2-4 6.8-2.3 1.1-4.5-0.6-4.5-3 0-2.9 2.3-4.7 4.2-5.8 1.6-0.9 4.3-1.1 4.3 2z"/>
								<path id="&lt;Path&gt;" class="s2" d="m78.7 404.8c1.2 2.8-0.1 6.6-1 7.7-1.7 2-4.4 1.3-5.4-0.9-1.1-2.7 0.3-5.2 1.6-7 1.2-1.6 3.6-2.7 4.8 0.2z"/>
							</g>
						</g>
						<g id="&lt;Group&gt;">
							<g id="&lt;Group&gt;">
								<g id="&lt;Group&gt;">
									<path id="&lt;Path&gt;" class="s2" d="m489.2 161.6c-3.4 0.1-2.8 0.1-7.2 0.2-4.3 0.2-8.9 5.1-11.1 2-2.3-3.2 1.8-6 3.1-8.4 1.1-2.1 1.4-5.4 4.3-6.2 1.6-0.4 3.9 0.5 5.3 1.9 1.5 1.4 2.2 1.9 6.3 3.7 4.6 2.1 2.6 6.7-0.7 6.8z"/>
								</g>
								<path id="&lt;Path&gt;" class="s2" d="m467.1 147.5c2 0.9 4.4 2.5 4.6 5.4 0.2 2.4-1.9 4.3-4.3 3.3-1.3-0.5-4.2-3.3-4.4-6.4-0.3-3.1 2.4-3.2 4.1-2.3z"/>
								<path id="&lt;Path&gt;" class="s2" d="m474.3 139.8c1.5 1.5 3.2 3.9 2.3 6.7-0.7 2.3-3.3 3.3-5.2 1.5-1-1-2.7-4.6-1.8-7.6 0.9-3 3.4-2.1 4.7-0.6z"/>
								<path id="&lt;Path&gt;" class="s2" d="m493.7 144.5c0.9 3-0.9 6.6-1.9 7.6-1.9 1.7-4.5 0.7-5.2-1.6-0.8-2.8 0.9-5.1 2.4-6.7 1.4-1.4 3.9-2.3 4.7 0.7z"/>
								<path id="&lt;Path&gt;" class="s2" d="m484.1 137.6c1.9 2.4 1.7 6.5 1.2 7.7-1.1 2.4-3.9 2.5-5.4 0.6-1.9-2.3-1.2-5.1-0.4-7.1 0.7-1.8 2.6-3.6 4.6-1.2z"/>
							</g>
							<g id="&lt;Group&gt;">
								<g id="&lt;Group&gt;">
									<path id="&lt;Path&gt;" class="s2" d="m516.9 144.7c-3.1-1.2-2.6-1-6.6-2.6-4-1.6-10.2 1.1-11-2.7-0.8-3.8 4-4.8 6.2-6.4 1.9-1.5 3.4-4.4 6.4-3.9 1.7 0.2 3.4 1.9 4.2 3.8 0.8 1.8 1.2 2.6 4.2 5.9 3.4 3.8-0.3 7.2-3.4 5.9z"/>
								</g>
								<path id="&lt;Path&gt;" class="s2" d="m502.4 123c1.4 1.6 3 4 2 6.8-0.8 2.3-3.4 3.2-5.2 1.3-1-1-2.5-4.7-1.5-7.7 1-2.9 3.4-1.9 4.7-0.4z"/>
								<path id="&lt;Path&gt;" class="s2" d="m512.1 118.8c0.7 2 1.3 4.9-0.6 7.1-1.6 1.8-4.4 1.6-5.4-0.7-0.5-1.3-0.6-5.4 1.4-7.7 2-2.4 3.9-0.6 4.6 1.3z"/>
								<path id="&lt;Path&gt;" class="s2" d="m528 130.9c-0.5 3.1-3.5 5.8-4.8 6.2-2.5 0.8-4.5-1.1-4.2-3.5 0.4-3 2.9-4.4 4.9-5.2 1.8-0.8 4.5-0.5 4.1 2.5z"/>
								<path id="&lt;Path&gt;" class="s2" d="m521.9 120.8c0.8 3-1 6.6-2 7.5-2 1.7-4.6 0.7-5.2-1.6-0.8-2.9 1-5.2 2.5-6.7 1.4-1.4 3.9-2.2 4.7 0.8z"/>
							</g>
						</g>
						<g id="&lt;Group&gt;">
							<g id="&lt;Group&gt;">
								<g id="&lt;Group&gt;">
									<path id="&lt;Path&gt;" class="s2" d="m349.6 531.5c-2.9-1.7-2.4-1.4-6.2-3.5-3.8-2.2-10.3-0.3-10.6-4.2-0.2-3.8 4.7-4.2 7.1-5.5 2-1.2 3.9-3.9 6.9-3 1.5 0.4 3 2.4 3.6 4.3 0.5 2 0.9 2.8 3.4 6.5 2.8 4.1-1.3 7-4.2 5.4z"/>
								</g>
								<path id="&lt;Path&gt;" class="s2" d="m338.1 508c1.2 1.8 2.5 4.4 1.1 7-1.1 2.2-3.8 2.7-5.4 0.6-0.8-1.1-1.8-5-0.4-7.8 1.4-2.8 3.7-1.5 4.7 0.2z"/>
								<path id="&lt;Path&gt;" class="s2" d="m348.3 505.1c0.4 2.1 0.6 5-1.6 7-1.8 1.6-4.5 1-5.2-1.5-0.4-1.3 0.1-5.3 2.4-7.4 2.3-2.1 4 0 4.4 1.9z"/>
								<path id="&lt;Path&gt;" class="s2" d="m362.4 519.3c-0.8 2.9-4.2 5.2-5.6 5.4-2.5 0.5-4.2-1.7-3.6-4 0.8-2.9 3.5-3.9 5.6-4.5 1.8-0.5 4.4 0.1 3.6 3.1z"/>
								<path id="&lt;Path&gt;" class="s2" d="m357.7 508.4c0.4 3-1.8 6.4-3 7.2-2.1 1.4-4.6 0.1-4.9-2.3-0.4-3 1.7-5 3.4-6.3 1.5-1.2 4.1-1.7 4.5 1.4z"/>
							</g>
							<g id="&lt;Group&gt;">
								<g id="&lt;Group&gt;">
									<path id="&lt;Path&gt;" class="s2" d="m382.1 531.5c-2-2.7-1.7-2.2-4.3-5.7-2.6-3.5-9.3-4.4-8-8.1 1.3-3.6 5.9-1.9 8.6-2.2 2.4-0.2 5.2-1.9 7.6 0 1.2 1.1 1.8 3.4 1.5 5.4-0.3 2-0.3 2.9 0.6 7.3 0.9 4.9-4 6-6 3.3z"/>
								</g>
								<path id="&lt;Path&gt;" class="s2" d="m381 505.4c0.3 2.1 0.4 5-1.8 6.9-1.9 1.5-4.6 0.8-5.2-1.7-0.3-1.3 0.3-5.3 2.7-7.3 2.4-2 4 0.1 4.3 2.1z"/>
								<path id="&lt;Path&gt;" class="s2" d="m391.4 506.8c-0.4 2.1-1.4 4.9-4.2 5.8-2.3 0.7-4.6-0.9-4.2-3.4 0.2-1.4 2.3-4.9 5.2-5.9 3-1 3.6 1.6 3.2 3.5z"/>
								<path id="&lt;Path&gt;" class="s2" d="m398.7 525.4c-2 2.4-6 3.1-7.3 2.8-2.5-0.6-3.2-3.3-1.7-5.1 1.8-2.3 4.7-2.2 6.9-1.9 1.9 0.3 4 1.8 2.1 4.2z"/>
								<path id="&lt;Path&gt;" class="s2" d="m398.8 513.6c-0.9 3-4.3 5.1-5.7 5.4-2.5 0.4-4.2-1.8-3.5-4.1 0.8-2.8 3.5-3.9 5.6-4.4 1.9-0.5 4.4 0.1 3.6 3.1z"/>
							</g>
						</g>
						<g id="&lt;Group&gt;">
							<g id="&lt;Group&gt;">
								<g id="&lt;Group&gt;">
									<path id="&lt;Path&gt;" class="s2" d="m207.3 451.7c-2.9-1.5-2.5-1.2-6.3-3.3-3.9-2-10.3 0-10.7-3.9-0.4-3.8 4.6-4.3 6.9-5.7 2-1.2 3.9-3.9 6.8-3.2 1.6 0.4 3.1 2.3 3.7 4.3 0.6 1.9 1 2.7 3.6 6.3 2.9 4.1-1.1 7.1-4 5.5z"/>
								</g>
								<path id="&lt;Path&gt;" class="s2" d="m195.2 428.6c1.2 1.8 2.5 4.3 1.3 7-1.1 2.2-3.8 2.7-5.4 0.7-0.9-1.1-2-5-0.7-7.8 1.3-2.8 3.7-1.5 4.8 0.1z"/>
								<path id="&lt;Path&gt;" class="s2" d="m205.2 425.4c0.5 2.1 0.8 5-1.3 7-1.8 1.7-4.5 1.2-5.3-1.3-0.4-1.3 0-5.3 2.2-7.5 2.3-2.1 4-0.1 4.4 1.8z"/>
								<path id="&lt;Path&gt;" class="s2" d="m219.7 439.2c-0.7 3-4 5.3-5.4 5.6-2.5 0.6-4.3-1.6-3.7-3.9 0.7-2.9 3.3-4 5.4-4.7 1.9-0.5 4.5 0 3.7 3z"/>
								<path id="&lt;Path&gt;" class="s2" d="m214.8 428.4c0.5 3.1-1.7 6.5-2.8 7.3-2.1 1.5-4.6 0.2-5-2.2-0.5-2.9 1.5-5 3.2-6.3 1.5-1.3 4.1-1.8 4.6 1.2z"/>
							</g>
							<g id="&lt;Group&gt;">
								<g id="&lt;Group&gt;">
									<path id="&lt;Path&gt;" class="s2" d="m239.8 450.9c-2.1-2.6-1.8-2.1-4.5-5.6-2.7-3.4-9.4-4.1-8.2-7.8 1.2-3.7 5.9-2.1 8.6-2.5 2.3-0.3 5.1-2 7.5-0.2 1.3 1.1 1.9 3.4 1.7 5.4-0.3 2-0.2 2.9 0.7 7.3 1.1 4.9-3.8 6-5.8 3.4z"/>
								</g>
								<path id="&lt;Path&gt;" class="s2" d="m237.9 424.8c0.4 2.2 0.6 5-1.6 7-1.8 1.6-4.5 1-5.2-1.5-0.3-1.4 0.2-5.4 2.5-7.4 2.4-2.1 4 0 4.3 1.9z"/>
								<path id="&lt;Path&gt;" class="s2" d="m248.4 426c-0.4 2.1-1.2 4.9-4 5.9-2.3 0.8-4.6-0.8-4.3-3.3 0.1-1.4 2.1-5 5-6 2.9-1.1 3.7 1.5 3.3 3.4z"/>
								<path id="&lt;Path&gt;" class="s2" d="m256.2 444.4c-1.9 2.5-5.9 3.3-7.3 3-2.5-0.5-3.2-3.2-1.8-5.1 1.8-2.4 4.7-2.3 6.9-2.1 1.9 0.3 4.1 1.8 2.2 4.2z"/>
								<path id="&lt;Path&gt;" class="s2" d="m256 432.6c-0.8 3-4.2 5.2-5.5 5.5-2.6 0.6-4.3-1.6-3.7-4 0.7-2.8 3.4-3.9 5.5-4.5 1.9-0.6 4.4 0 3.7 3z"/>
							</g>
						</g>
						<g id="&lt;Group&gt;">
							<g id="&lt;Group&gt;">
								<g id="&lt;Group&gt;">
									<path id="&lt;Path&gt;" class="s2" d="m300.3 344.8c-3.2 0.9-2.7 0.8-6.8 2.1-4.2 1.3-7.3 7.2-10.3 4.8-3-2.5 0.1-6.3 0.8-8.9 0.6-2.3-0.1-5.6 2.6-7.1 1.4-0.8 3.8-0.6 5.6 0.4 1.8 1 2.6 1.3 7 2 5 0.8 4.3 5.7 1.1 6.7z"/>
								</g>
								<path id="&lt;Path&gt;" class="s2" d="m275.3 337c2.2 0.4 4.9 1.2 5.9 4 0.8 2.3-0.7 4.6-3.3 4.3-1.4-0.1-4.9-2.1-6-5-1-2.9 1.5-3.7 3.4-3.3z"/>
								<path id="&lt;Path&gt;" class="s2" d="m280.2 327.6c1.9 1.2 4.1 3 4 5.9-0.1 2.4-2.3 4.1-4.6 2.8-1.2-0.6-3.8-3.7-3.7-6.8 0-3.1 2.7-2.9 4.3-1.9z"/>
								<path id="&lt;Path&gt;" class="s2" d="m300.2 327.1c1.6 2.7 0.9 6.7 0.1 7.8-1.3 2.2-4.1 1.9-5.4-0.1-1.5-2.5-0.4-5.2 0.6-7.1 0.9-1.8 3.1-3.2 4.7-0.6z"/>
								<path id="&lt;Path&gt;" class="s2" d="m289.1 323c2.5 1.8 3.4 5.8 3.2 7.2-0.5 2.5-3.1 3.3-5.1 1.9-2.4-1.7-2.4-4.6-2.2-6.8 0.1-1.9 1.6-4.1 4.1-2.3z"/>
							</g>
							<g id="&lt;Group&gt;">
								<g id="&lt;Group&gt;">
									<path id="&lt;Path&gt;" class="s2" d="m322.7 321.3c-3.4-0.4-2.8-0.3-7.1-0.8-4.4-0.5-9.6 3.7-11.4 0.2-1.7-3.4 2.7-5.6 4.3-7.8 1.5-1.9 2.2-5.1 5.2-5.5 1.7-0.1 3.8 1.1 5 2.7 1.3 1.5 1.9 2.2 5.7 4.6 4.2 2.7 1.6 6.9-1.7 6.6z"/>
								</g>
								<path id="&lt;Path&gt;" class="s2" d="m302.9 304.1c1.8 1.2 4 3.1 3.8 6.1-0.2 2.4-2.5 3.9-4.8 2.6-1.2-0.7-3.6-3.9-3.4-7 0.2-3.1 2.8-2.8 4.4-1.7z"/>
								<path id="&lt;Path&gt;" class="s2" d="m311.2 297.5c1.2 1.8 2.5 4.4 1.3 7-1.1 2.2-3.8 2.7-5.4 0.7-0.9-1.1-2-5-0.7-7.8 1.4-2.8 3.7-1.5 4.8 0.1z"/>
								<path id="&lt;Path&gt;" class="s2" d="m329.7 305.1c0.4 3-1.9 6.4-3 7.2-2.2 1.4-4.6 0-4.9-2.3-0.4-3 1.6-5 3.4-6.3 1.5-1.2 4.1-1.7 4.5 1.4z"/>
								<path id="&lt;Path&gt;" class="s2" d="m321.2 296.8c1.5 2.7 0.7 6.7 0 7.8-1.4 2.2-4.2 1.9-5.4-0.2-1.5-2.5-0.4-5.2 0.6-7.1 1-1.7 3.2-3.2 4.8-0.5z"/>
							</g>
						</g>
						<g id="&lt;Group&gt;">
							<g id="&lt;Group&gt;">
								<g id="&lt;Group&gt;">
									<path id="&lt;Path&gt;" class="s2" d="m482.4 454c-3.2-0.8-2.7-0.6-6.9-1.5-4.3-1-9.9 2.7-11.4-0.9-1.4-3.6 3.3-5.4 5.1-7.3 1.7-1.8 2.7-4.9 5.7-5 1.7 0 3.7 1.4 4.7 3.1 1.1 1.7 1.7 2.4 5.2 5.2 3.9 3.1 0.9 7.1-2.4 6.4z"/>
								</g>
								<path id="&lt;Path&gt;" class="s2" d="m464.5 434.9c1.7 1.4 3.7 3.5 3.2 6.4-0.4 2.4-2.9 3.7-5 2.2-1.1-0.9-3.3-4.3-2.8-7.4 0.6-3 3.1-2.4 4.6-1.2z"/>
								<path id="&lt;Path&gt;" class="s2" d="m473.4 429.2c1 1.9 2.1 4.6 0.6 7.1-1.3 2.1-4.1 2.3-5.5 0.2-0.7-1.2-1.4-5.2 0.2-7.9 1.6-2.6 3.8-1.1 4.7 0.6z"/>
								<path id="&lt;Path&gt;" class="s2" d="m491.1 438.6c0 3.1-2.5 6.2-3.8 6.8-2.2 1.2-4.5-0.4-4.6-2.8-0.1-2.9 2.1-4.7 4-5.9 1.6-1 4.3-1.2 4.4 1.9z"/>
								<path id="&lt;Path&gt;" class="s2" d="m483.4 429.5c1.3 2.8 0.1 6.7-0.8 7.8-1.6 2-4.3 1.4-5.3-0.8-1.3-2.6 0.1-5.2 1.3-7 1.1-1.6 3.5-2.8 4.8 0z"/>
							</g>
							<g id="&lt;Group&gt;">
								<g id="&lt;Group&gt;">
									<path id="&lt;Path&gt;" class="s2" d="m513.5 444.5c-2.7-2-2.3-1.6-5.8-4.2-3.5-2.6-10.2-1.5-10-5.4 0.1-3.8 5.1-3.6 7.6-4.6 2.2-1 4.4-3.4 7.2-2.2 1.5 0.6 2.8 2.7 3.1 4.7 0.3 2 0.5 2.8 2.6 6.8 2.4 4.4-2 6.8-4.7 4.9z"/>
								</g>
								<path id="&lt;Path&gt;" class="s2" d="m504.7 419.8c1 2 2 4.7 0.3 7.2-1.3 2-4.1 2.1-5.4-0.1-0.7-1.2-1.3-5.2 0.4-7.8 1.7-2.6 3.9-1 4.7 0.7z"/>
								<path id="&lt;Path&gt;" class="s2" d="m515.1 418.1c0.2 2.2 0.1 5.1-2.3 6.8-2 1.4-4.6 0.5-5-2.1-0.2-1.3 0.7-5.3 3.2-7.1 2.6-1.8 4 0.5 4.1 2.4z"/>
								<path id="&lt;Path&gt;" class="s2" d="m527.6 433.8c-1.2 2.9-4.8 4.7-6.2 4.8-2.6 0.2-4-2.2-3.1-4.4 1.1-2.8 3.8-3.5 6-3.8 1.9-0.3 4.4 0.5 3.3 3.4z"/>
								<path id="&lt;Path&gt;" class="s2" d="m524.2 422.4c0 3.1-2.6 6.2-3.8 6.9-2.3 1.2-4.6-0.5-4.7-2.9 0-2.9 2.3-4.7 4.1-5.9 1.7-1 4.3-1.2 4.4 1.9z"/>
							</g>
						</g>
						<g id="&lt;Group&gt;">
							<g id="&lt;Group&gt;">
								<g id="&lt;Group&gt;">
									<path id="&lt;Path&gt;" class="s2" d="m320.5 413.2c-3.2-0.8-2.7-0.6-6.9-1.6-4.2-1-10 2.5-11.3-1.1-1.4-3.6 3.3-5.3 5.2-7.3 1.6-1.7 2.8-4.8 5.8-4.8 1.6 0 3.6 1.5 4.6 3.2 1.1 1.7 1.7 2.4 5.1 5.3 3.9 3.1 0.8 7.1-2.5 6.3z"/>
								</g>
								<path id="&lt;Path&gt;" class="s2" d="m303 393.8c1.6 1.5 3.5 3.6 3 6.5-0.5 2.4-3 3.6-5 2-1.2-0.8-3.2-4.3-2.6-7.3 0.5-3.1 3.1-2.5 4.6-1.2z"/>
								<path id="&lt;Path&gt;" class="s2" d="m311.9 388.2c1 2 2 4.7 0.5 7.2-1.3 2-4.1 2.2-5.5 0-0.7-1.2-1.3-5.1 0.3-7.8 1.7-2.6 3.8-1.1 4.7 0.6z"/>
								<path id="&lt;Path&gt;" class="s2" d="m329.4 397.9c0 3.1-2.6 6.2-3.8 6.8-2.3 1.2-4.6-0.4-4.6-2.8-0.1-3 2.2-4.8 4.1-5.9 1.6-1 4.3-1.2 4.3 1.9z"/>
								<path id="&lt;Path&gt;" class="s2" d="m321.9 388.7c1.2 2.9 0 6.7-0.9 7.8-1.6 2-4.4 1.4-5.3-0.8-1.2-2.7 0.2-5.3 1.4-7 1.2-1.6 3.5-2.8 4.8 0z"/>
							</g>
							<g id="&lt;Group&gt;">
								<g id="&lt;Group&gt;">
									<path id="&lt;Path&gt;" class="s2" d="m351.7 404.2c-2.6-2-2.2-1.6-5.7-4.3-3.4-2.6-10.1-1.6-9.9-5.5 0.2-3.8 5.2-3.5 7.7-4.5 2.2-0.9 4.5-3.3 7.2-2.1 1.5 0.7 2.8 2.7 3 4.8 0.3 2 0.5 2.8 2.6 6.8 2.2 4.5-2.2 6.8-4.9 4.8z"/>
								</g>
								<path id="&lt;Path&gt;" class="s2" d="m343.4 379.4c0.9 2 1.9 4.7 0.2 7.2-1.4 1.9-4.2 2.1-5.4-0.2-0.7-1.2-1.2-5.2 0.5-7.8 1.8-2.5 3.9-0.9 4.7 0.8z"/>
								<path id="&lt;Path&gt;" class="s2" d="m353.9 377.9c0.1 2.2 0 5.1-2.5 6.7-2 1.4-4.6 0.5-5-2.1-0.2-1.4 0.8-5.3 3.4-7 2.6-1.8 3.9 0.5 4.1 2.4z"/>
								<path id="&lt;Path&gt;" class="s2" d="m366 393.8c-1.2 2.9-4.9 4.6-6.3 4.7-2.5 0.1-3.9-2.3-3-4.5 1.1-2.7 3.9-3.4 6.1-3.7 1.9-0.3 4.4 0.6 3.2 3.5z"/>
								<path id="&lt;Path&gt;" class="s2" d="m362.8 382.4c0 3.1-2.7 6.1-3.9 6.7-2.3 1.2-4.6-0.5-4.6-2.9 0-3 2.3-4.7 4.2-5.8 1.7-1 4.3-1.1 4.3 2z"/>
							</g>
						</g>
						<g id="&lt;Group&gt;">
							<g id="&lt;Group&gt;">
								<g id="&lt;Group&gt;">
									<path id="&lt;Path&gt;" class="s2" d="m38.7 536.2c-3.3-0.2-2.8-0.1-7.1-0.4-4.3-0.3-9.4 4.2-11.3 0.8-2-3.4 2.3-5.8 3.9-8 1.3-2 1.9-5.2 4.9-5.7 1.6-0.3 3.8 0.8 5.1 2.3 1.4 1.6 2.1 2.1 5.9 4.4 4.4 2.5 1.9 6.8-1.4 6.6z"/>
								</g>
								<path id="&lt;Path&gt;" class="s2" d="m18.2 520.1c1.8 1.1 4.1 2.9 4 5.8 0 2.4-2.3 4.1-4.6 2.9-1.2-0.7-3.8-3.8-3.8-6.9 0.1-3.1 2.7-2.9 4.4-1.8z"/>
								<path id="&lt;Path&gt;" class="s2" d="m26.1 513.1c1.3 1.7 2.7 4.2 1.6 6.9-0.9 2.2-3.6 2.9-5.3 1-1-1.1-2.3-4.9-1.1-7.8 1.2-2.8 3.6-1.7 4.8-0.1z"/>
								<path id="&lt;Path&gt;" class="s2" d="m44.9 519.7c0.6 3.1-1.5 6.5-2.6 7.3-2.1 1.6-4.6 0.3-5-2-0.6-2.9 1.4-5.1 3-6.5 1.5-1.2 4.1-1.9 4.6 1.2z"/>
								<path id="&lt;Path&gt;" class="s2" d="m36 511.9c1.7 2.6 1.1 6.6 0.4 7.8-1.3 2.2-4.1 2.1-5.4 0.1-1.6-2.5-0.7-5.2 0.3-7.2 0.9-1.7 3-3.3 4.7-0.7z"/>
							</g>
							<g id="&lt;Group&gt;">
								<g id="&lt;Group&gt;">
									<path id="&lt;Path&gt;" class="s2" d="m68 522.2c-3-1.6-2.5-1.3-6.3-3.3-3.9-2-10.3 0.1-10.8-3.8-0.4-3.8 4.6-4.3 6.9-5.7 2-1.3 3.8-4 6.8-3.3 1.6 0.4 3.1 2.3 3.7 4.2 0.6 2 1 2.8 3.6 6.4 3 4-1 7-3.9 5.5z"/>
								</g>
								<path id="&lt;Path&gt;" class="s2" d="m55.7 499.1c1.2 1.8 2.6 4.4 1.3 7.1-1 2.1-3.7 2.7-5.4 0.7-0.8-1.1-2-5-0.7-7.8 1.3-2.8 3.7-1.6 4.8 0z"/>
								<path id="&lt;Path&gt;" class="s2" d="m65.7 495.9c0.5 2.1 0.9 5-1.3 7-1.7 1.7-4.5 1.2-5.3-1.2-0.4-1.4 0-5.4 2.2-7.5 2.2-2.2 4-0.2 4.4 1.7z"/>
								<path id="&lt;Path&gt;" class="s2" d="m80.3 509.6c-0.7 3-4 5.3-5.4 5.6-2.5 0.6-4.3-1.5-3.7-3.9 0.7-2.9 3.3-4 5.4-4.7 1.8-0.5 4.4-0.1 3.7 3z"/>
								<path id="&lt;Path&gt;" class="s2" d="m75.3 498.8c0.5 3.1-1.7 6.5-2.8 7.3-2.1 1.6-4.6 0.3-5-2.1-0.5-2.9 1.5-5 3.2-6.4 1.5-1.3 4.1-1.8 4.6 1.2z"/>
							</g>
						</g>
						<g id="&lt;Group&gt;">
							<g id="&lt;Group&gt;">
								<g id="&lt;Group&gt;">
									<path id="&lt;Path&gt;" class="s2" d="m134.3 386c-2.4-2.3-2-1.9-5.3-4.8-3.2-3-9.9-2.6-9.3-6.5 0.6-3.8 5.5-3 8.1-3.8 2.2-0.6 4.7-2.8 7.4-1.3 1.4 0.8 2.4 3 2.5 5 0.1 2 0.2 2.9 1.9 7.1 1.8 4.6-2.8 6.5-5.3 4.3z"/>
								</g>
								<path id="&lt;Path&gt;" class="s2" d="m128.4 360.5c0.7 2.1 1.4 4.9-0.5 7.1-1.6 1.9-4.4 1.7-5.4-0.6-0.6-1.3-0.7-5.3 1.3-7.7 2-2.4 3.9-0.6 4.6 1.2z"/>
								<path id="&lt;Path&gt;" class="s2" d="m138.9 360c0 2.2-0.5 5-3 6.4-2.2 1.2-4.7 0-4.8-2.5-0.1-1.4 1.3-5.2 4-6.7 2.7-1.5 3.9 0.8 3.8 2.8z"/>
								<path id="&lt;Path&gt;" class="s2" d="m149.5 377c-1.5 2.7-5.3 4.1-6.7 4-2.5-0.1-3.7-2.6-2.6-4.7 1.4-2.6 4.3-3.1 6.4-3.1 2-0.1 4.4 1 2.9 3.8z"/>
								<path id="&lt;Path&gt;" class="s2" d="m147.4 365.3c-0.3 3.1-3.2 5.8-4.5 6.3-2.5 1-4.5-0.9-4.3-3.3 0.3-3 2.7-4.5 4.7-5.4 1.8-0.8 4.4-0.7 4.1 2.4z"/>
							</g>
							<g id="&lt;Group&gt;">
								<g id="&lt;Group&gt;">
									<path id="&lt;Path&gt;" class="s2" d="m166 393.3c-1.4-3-1.2-2.5-3-6.5-1.7-4-8-6.4-5.9-9.6 2-3.3 6.2-0.6 8.9-0.3 2.3 0.3 5.5-0.7 7.3 1.7 1 1.3 1.1 3.8 0.3 5.6-0.7 1.9-0.9 2.8-1.1 7.3-0.2 5-5.2 4.9-6.5 1.8z"/>
								</g>
								<path id="&lt;Path&gt;" class="s2" d="m170.7 367.6c-0.1 2.2-0.6 5-3.3 6.3-2.1 1.1-4.7-0.2-4.7-2.7 0-1.4 1.6-5.2 4.3-6.6 2.8-1.4 3.9 1.1 3.7 3z"/>
								<path id="&lt;Path&gt;" class="s2" d="m180.6 371.4c-0.9 1.9-2.5 4.4-5.4 4.6-2.4 0.2-4.3-1.8-3.3-4.2 0.5-1.3 3.2-4.3 6.3-4.6 3.1-0.2 3.2 2.4 2.4 4.2z"/>
								<path id="&lt;Path&gt;" class="s2" d="m183.5 391.2c-2.5 1.9-6.5 1.6-7.8 1-2.3-1.1-2.4-3.9-0.5-5.4 2.4-1.8 5.2-1.1 7.2-0.3 1.8 0.8 3.5 2.7 1.1 4.7z"/>
								<path id="&lt;Path&gt;" class="s2" d="m186.2 379.6c-1.5 2.7-5.3 4.1-6.7 4-2.6-0.1-3.7-2.7-2.5-4.8 1.4-2.6 4.2-3 6.4-3 2-0.1 4.3 1.1 2.8 3.8z"/>
							</g>
						</g>
						<g id="&lt;Group&gt;">
							<g id="&lt;Group&gt;">
								<g id="&lt;Group&gt;">
									<path id="&lt;Path&gt;" class="s2" d="m187.2 184.1c-3.2 0.8-2.7 0.7-6.9 1.8-4.2 1-7.6 6.9-10.5 4.3-2.9-2.6 0.4-6.3 1.2-8.9 0.7-2.2 0.2-5.5 2.9-6.9 1.5-0.8 3.9-0.4 5.6 0.6 1.8 1.1 2.6 1.4 7 2.3 4.9 1.1 3.9 6 0.7 6.8z"/>
								</g>
								<path id="&lt;Path&gt;" class="s2" d="m162.6 175.1c2.2 0.5 4.9 1.5 5.7 4.3 0.7 2.3-0.9 4.6-3.5 4.2-1.4-0.3-4.8-2.4-5.7-5.4-0.9-2.9 1.6-3.6 3.5-3.1z"/>
								<path id="&lt;Path&gt;" class="s2" d="m168 166c1.8 1.2 3.9 3.2 3.7 6.1-0.2 2.4-2.6 3.9-4.8 2.6-1.2-0.7-3.6-4-3.4-7.1 0.3-3.1 2.9-2.7 4.5-1.6z"/>
								<path id="&lt;Path&gt;" class="s2" d="m188 166.4c1.4 2.8 0.5 6.7-0.3 7.9-1.5 2.1-4.2 1.7-5.4-0.5-1.4-2.6-0.2-5.2 0.9-7 1-1.7 3.3-3.1 4.8-0.4z"/>
								<path id="&lt;Path&gt;" class="s2" d="m177 161.8c2.5 2 3.2 5.9 2.9 7.3-0.6 2.5-3.3 3.2-5.2 1.7-2.3-1.8-2.2-4.7-1.9-6.9 0.3-1.9 1.8-4 4.2-2.1z"/>
							</g>
							<g id="&lt;Group&gt;">
								<g id="&lt;Group&gt;">
									<path id="&lt;Path&gt;" class="s2" d="m210.7 161.6c-3.3-0.5-2.8-0.4-7.1-1.1-4.3-0.7-9.7 3.3-11.3-0.3-1.6-3.5 2.9-5.5 4.7-7.6 1.5-1.8 2.4-5 5.4-5.2 1.7-0.1 3.7 1.2 4.9 2.9 1.1 1.6 1.8 2.3 5.4 4.9 4.1 2.9 1.3 7-2 6.4z"/>
								</g>
								<path id="&lt;Path&gt;" class="s2" d="m191.8 143.6c1.7 1.3 3.8 3.3 3.5 6.2-0.3 2.4-2.8 3.8-4.9 2.4-1.2-0.8-3.5-4.1-3.1-7.2 0.3-3.1 2.9-2.6 4.5-1.4z"/>
								<path id="&lt;Path&gt;" class="s2" d="m200.3 137.4c1.2 1.8 2.4 4.4 1 7.1-1.2 2.1-3.9 2.5-5.4 0.4-0.8-1.1-1.8-5.1-0.3-7.8 1.5-2.8 3.7-1.4 4.7 0.3z"/>
								<path id="&lt;Path&gt;" class="s2" d="m218.5 145.8c0.2 3.1-2.2 6.3-3.4 7.1-2.2 1.3-4.6-0.2-4.8-2.6-0.2-2.9 1.9-4.9 3.7-6.1 1.6-1.1 4.2-1.5 4.5 1.6z"/>
								<path id="&lt;Path&gt;" class="s2" d="m210.3 137.2c1.5 2.7 0.5 6.7-0.3 7.8-1.5 2.1-4.3 1.6-5.4-0.5-1.4-2.6-0.2-5.2 1-7.1 1-1.6 3.3-3 4.7-0.2z"/>
							</g>
						</g>
					</g>
				</g>
			</g>
		</g>
	</g>
</svg>